<svg width="475" height="475" viewBox="0 0 475 475" fill="none" xmlns="http://www.w3.org/2000/svg">
<mask id="mask0" mask-type="alpha" maskUnits="userSpaceOnUse" x="0" y="0" width="475" height="475">
<rect width="475" height="475" fill="#C4C4C4"/>
</mask>
<g mask="url(#mask0)">
<path d="M475 457L295.5 414H215L0 457V474.5H475V457Z" fill="#8D59AD"/>
<path d="M475 457L295.5 414H215L0 457V474.5H475V457Z" fill="url(#paint0_linear)"/>
<path d="M219.117 265.587H240.113V414.062H219.117V265.587Z" fill="#8D59AD"/>
<path d="M223.233 240.841H236.408V389.317H223.233V240.841Z" fill="#8D59AD"/>
<path d="M225.292 227.012H233.938V375.488H225.292V227.012Z" fill="#8D59AD"/>
<path d="M227.351 220.462H231.88V368.937H227.351V220.462Z" fill="#8D59AD"/>
<path d="M228.998 211H230.233V359.476H228.998V211Z" fill="#8D59AD"/>
<path d="M215 347.831H244.642V414.062H215V347.831Z" fill="#8D59AD"/>
<path d="M270.224 265.587H291.221V414.062H270.224V265.587Z" fill="#8D59AD"/>
<path d="M274.341 240.841H287.515V389.317H274.341V240.841Z" fill="#8D59AD"/>
<path d="M276.4 227.012H285.046V375.488H276.4V227.012Z" fill="#8D59AD"/>
<path d="M278.458 220.462H282.987V368.937H278.458V220.462Z" fill="#8D59AD"/>
<path d="M280.105 211H281.34V359.476H280.105V211Z" fill="#8D59AD"/>
<path d="M266.107 347.831H295.75V414.062H266.107V347.831Z" fill="#8D59AD"/>
<rect x="225.688" y="391.5" width="59.375" height="22.5625" fill="#8D59AD"/>
<rect x="225.688" y="391.5" width="59.375" height="22.5625" fill="#8D59AD"/>
<path d="M245.153 390.349L246.481 392.727H243.826L245.153 390.349Z" fill="#8D59AD"/>
<path d="M245.153 390.349L246.481 392.727H243.826L245.153 390.349Z" fill="#8D59AD"/>
<path d="M245.153 390.349L246.481 392.727H243.826L245.153 390.349Z" fill="#8D59AD"/>
<path d="M265.597 390.349L266.925 392.727H264.269L265.597 390.349Z" fill="#8D59AD"/>
<path d="M265.597 390.349L266.925 392.727H264.269L265.597 390.349Z" fill="#8D59AD"/>
<path d="M265.597 390.349L266.925 392.727H264.269L265.597 390.349Z" fill="#8D59AD"/>
<path d="M263.553 390.349L264.881 392.727H262.225L263.553 390.349Z" fill="#8D59AD"/>
<path d="M263.553 390.349L264.881 392.727H262.225L263.553 390.349Z" fill="#8D59AD"/>
<path d="M263.553 390.349L264.881 392.727H262.225L263.553 390.349Z" fill="#8D59AD"/>
<path d="M253.331 390.349L254.658 392.727H252.003L253.331 390.349Z" fill="#8D59AD"/>
<path d="M253.331 390.349L254.658 392.727H252.003L253.331 390.349Z" fill="#8D59AD"/>
<path d="M253.331 390.349L254.658 392.727H252.003L253.331 390.349Z" fill="#8D59AD"/>
<path d="M251.286 390.349L252.614 392.727H249.958L251.286 390.349Z" fill="#8D59AD"/>
<path d="M251.286 390.349L252.614 392.727H249.958L251.286 390.349Z" fill="#8D59AD"/>
<path d="M251.286 390.349L252.614 392.727H249.958L251.286 390.349Z" fill="#8D59AD"/>
<path d="M247.198 390.349L248.526 392.727H245.87L247.198 390.349Z" fill="#8D59AD"/>
<path d="M247.198 390.349L248.526 392.727H245.87L247.198 390.349Z" fill="#8D59AD"/>
<path d="M247.198 390.349L248.526 392.727H245.87L247.198 390.349Z" fill="#8D59AD"/>
<path d="M261.508 390.349L262.836 392.727H260.18L261.508 390.349Z" fill="#8D59AD"/>
<path d="M261.508 390.349L262.836 392.727H260.18L261.508 390.349Z" fill="#8D59AD"/>
<path d="M261.508 390.349L262.836 392.727H260.18L261.508 390.349Z" fill="#8D59AD"/>
<path d="M259.463 390.349L260.791 392.727H258.136L259.463 390.349Z" fill="#8D59AD"/>
<path d="M259.463 390.349L260.791 392.727H258.136L259.463 390.349Z" fill="#8D59AD"/>
<path d="M259.463 390.349L260.791 392.727H258.136L259.463 390.349Z" fill="#8D59AD"/>
<path d="M249.242 390.349L250.57 392.727H247.914L249.242 390.349Z" fill="#8D59AD"/>
<path d="M249.242 390.349L250.57 392.727H247.914L249.242 390.349Z" fill="#8D59AD"/>
<path d="M249.242 390.349L250.57 392.727H247.914L249.242 390.349Z" fill="#8D59AD"/>
<path d="M255.375 390.349L256.703 392.727H254.047L255.375 390.349Z" fill="#8D59AD"/>
<path d="M255.375 390.349L256.703 392.727H254.047L255.375 390.349Z" fill="#8D59AD"/>
<path d="M255.375 390.349L256.703 392.727H254.047L255.375 390.349Z" fill="#8D59AD"/>
<path d="M257.419 390.349L258.747 392.727H256.091L257.419 390.349Z" fill="#8D59AD"/>
<path d="M257.419 390.349L258.747 392.727H256.091L257.419 390.349Z" fill="#8D59AD"/>
<path d="M257.419 390.349L258.747 392.727H256.091L257.419 390.349Z" fill="#8D59AD"/>
<path d="M269.268 77.7878L269.911 77.3637L270.037 78.1238C270.718 82.2545 268.916 86.8899 266.729 90.6063C265.629 92.4764 264.416 94.1399 263.332 95.4254C262.27 96.6859 261.296 97.6262 260.657 98.0195C259.554 98.7854 257.933 99.6061 256.243 99.9161C254.542 100.228 252.695 100.032 251.286 98.6376C250.659 98.0171 250.147 97.5154 249.707 97.1272C249.263 96.736 248.92 96.4855 248.635 96.3471C248.362 96.2146 248.171 96.1981 248.003 96.238C247.821 96.2816 247.595 96.4099 247.291 96.7066L246.464 96.2021L246.734 95.3229L246.828 95.0183L247.099 94.9809C247.129 94.9541 247.178 94.9002 247.242 94.8044C247.373 94.6115 247.524 94.3201 247.701 93.9303C247.891 93.5117 248.089 93.0317 248.311 92.4936C248.511 92.0067 248.732 91.4722 248.984 90.8924C250.012 88.5271 251.467 85.6443 253.698 83.7938C256.217 81.7042 258.822 81.1062 261.412 80.5695C261.524 80.5463 261.636 80.5232 261.749 80.5001C264.232 79.9877 266.705 79.4779 269.268 77.7878ZM247.083 94.994C247.082 94.994 247.083 94.9937 247.084 94.993L247.083 94.994Z" fill="#187800" stroke="#005234"/>
<path d="M300.306 75.4471C300.611 74.9869 301.232 74.8614 301.692 75.1667C302.152 75.4721 302.278 76.0927 301.972 76.5529L300.306 75.4471ZM280.952 94.4062L280.478 93.5256L280.952 94.4062ZM242.844 99.1563L243.049 98.1774L243.049 98.1774L242.844 99.1563ZM229.244 127.379C229.018 127.883 228.426 128.108 227.922 127.881C227.418 127.655 227.194 127.063 227.42 126.559L229.244 127.379ZM301.972 76.5529C295.983 85.5798 290.966 90.1542 281.426 95.2869L280.478 93.5256C289.728 88.5489 294.498 84.1997 300.306 75.4471L301.972 76.5529ZM281.426 95.2869C273.54 99.5294 266.961 101.411 260.761 101.886C254.574 102.361 248.825 101.429 242.639 100.135L243.049 98.1774C249.194 99.4629 254.715 100.344 260.608 99.8922C266.486 99.4415 272.796 97.6584 280.478 93.5256L281.426 95.2869ZM242.639 100.135C240.157 99.6159 238.702 100.097 237.676 101.102C236.558 102.198 235.782 104.066 235.079 106.715C233.714 111.86 232.737 119.612 229.244 127.379L227.42 126.559C230.828 118.982 231.689 111.695 233.146 106.202C233.854 103.533 234.735 101.183 236.276 99.6738C237.908 98.0743 240.113 97.5633 243.049 98.1774L242.639 100.135Z" fill="#823E00"/>
<path d="M21.0208 26.7596C20.7154 26.2994 20.0948 26.1739 19.6346 26.4792C19.1744 26.7846 19.0489 27.4052 19.3542 27.8654L21.0208 26.7596ZM50.4688 49.2812L50.9425 48.4006L50.4688 49.2812ZM85.5 91.4375L85.2953 90.4587L85.2953 90.4587L85.5 91.4375ZM115.463 132.816C115.69 133.32 116.281 133.545 116.785 133.318C117.289 133.092 117.514 132.5 117.287 131.996L115.463 132.816ZM19.3542 27.8654C22.4194 32.4849 27.7826 36.8041 33.4645 40.5686C39.1675 44.3471 45.3034 47.6378 49.995 50.1619L50.9425 48.4006C46.2388 45.87 40.1834 42.6211 34.5692 38.9014C28.9339 35.1677 23.8542 31.0299 21.0208 26.7596L19.3542 27.8654ZM49.995 50.1619C53.6689 52.1385 56.9225 55.8163 59.9455 60.3214C62.9618 64.8166 65.6706 70.0122 68.3172 74.9405C70.9426 79.8293 73.5229 84.4879 76.2452 87.7565C78.9448 90.9978 82.0468 93.1815 85.7047 92.4163L85.2953 90.4587C82.7879 90.9832 80.3743 89.5891 77.782 86.4765C75.2123 83.3912 72.7244 78.92 70.0792 73.9942C67.4552 69.108 64.6911 63.8044 61.6063 59.207C58.5281 54.6196 55.0522 50.6117 50.9425 48.4006L49.995 50.1619ZM85.7047 92.4163C87.9412 91.9485 90.474 93.0044 93.262 95.4735C96.0233 97.919 98.8385 101.582 101.57 105.856C107.028 114.395 112.012 125.142 115.463 132.816L117.287 131.996C113.838 124.326 108.801 113.456 103.256 104.779C100.486 100.446 97.5533 96.6025 94.588 93.9763C91.6494 91.3738 88.4766 89.7932 85.2953 90.4587L85.7047 92.4163Z" fill="#823E00"/>
<path d="M166.844 352.688L164.975 354.348L164.975 354.348L166.844 352.688ZM174.564 228L177.027 227.572L174.564 228ZM199.501 157.344L198.486 155.059L199.501 157.344ZM249.309 97.7428C249.84 96.4683 249.237 95.0046 247.963 94.4736C246.688 93.9425 245.225 94.5452 244.693 95.8197L249.309 97.7428ZM165.089 419.083C160.587 403.607 164.893 391.533 168.888 380.878C170.85 375.645 172.852 370.48 173.357 365.599C173.883 360.505 172.8 355.626 168.712 351.027L164.975 354.348C168.012 357.765 168.785 361.198 168.383 365.085C167.96 369.184 166.252 373.668 164.206 379.122C160.187 389.842 155.29 403.299 160.288 420.48L165.089 419.083ZM168.712 351.027C162.095 343.582 156.719 337.764 153.26 331.042C149.881 324.474 148.304 316.941 149.73 306.107L144.773 305.455C143.229 317.184 144.919 325.758 148.814 333.329C152.63 340.747 158.534 347.101 164.975 354.348L168.712 351.027ZM149.73 306.107C150.421 300.855 152.624 294.937 155.619 288.504C158.616 282.063 162.264 275.39 165.796 268.473C169.293 261.625 172.636 254.61 174.836 247.765C177.034 240.927 178.156 234.066 177.027 227.572L172.101 228.428C173.036 233.809 172.148 239.788 170.076 246.235C168.006 252.675 164.82 259.39 161.343 266.199C157.902 272.938 154.132 279.848 151.085 286.394C148.035 292.949 145.566 299.427 144.773 305.455L149.73 306.107ZM177.027 227.572C174.732 214.376 176.307 199.184 180.714 186.307C185.16 173.318 192.265 163.296 200.517 159.628L198.486 155.059C188.331 159.572 180.592 171.222 175.984 184.688C171.336 198.266 169.645 214.311 172.101 228.428L177.027 227.572ZM200.517 159.628C204.206 157.988 208.512 154.551 212.931 150.223C217.401 145.845 222.17 140.37 226.784 134.435C235.99 122.593 244.74 108.708 249.309 97.7428L244.693 95.8197C240.356 106.229 231.888 119.723 222.836 131.367C218.321 137.175 213.701 142.47 209.432 146.652C205.111 150.884 201.327 153.796 198.486 155.059L200.517 159.628Z" fill="#823E00"/>
<path d="M246.16 16.2875C245.973 15.7677 245.401 15.4976 244.881 15.6842C244.361 15.8708 244.091 16.4435 244.277 16.9633L246.16 16.2875ZM247.392 52.2525L246.431 52.5294L247.392 52.2525ZM274.906 65.3147L275.688 64.6911L274.906 65.3147ZM247.782 96.8179C247.801 97.3698 248.264 97.8018 248.816 97.7828C249.368 97.7638 249.8 97.3009 249.781 96.7489L247.782 96.8179ZM244.277 16.9633C246.338 22.702 247.173 26.6537 247.371 29.6122C247.568 32.545 247.141 34.5433 246.605 36.4032C246.071 38.2554 245.362 40.143 245.137 42.6035C244.909 45.0943 245.168 48.149 246.431 52.5294L248.352 51.9756C247.14 47.7663 246.929 44.9672 247.128 42.7856C247.331 40.5736 247.946 38.97 248.527 36.9574C249.105 34.9525 249.583 32.7124 249.367 29.4785C249.152 26.2703 248.256 22.127 246.16 16.2875L244.277 16.9633ZM246.431 52.5294C247.445 56.048 249.345 58.1433 251.778 59.3828C254.144 60.5883 256.946 60.9455 259.683 61.1784C262.487 61.417 265.222 61.527 267.759 62.1447C270.252 62.752 272.443 63.8298 274.125 65.9384L275.688 64.6911C273.647 62.1329 271.007 60.8773 268.232 60.2015C265.499 59.536 262.526 59.4131 259.853 59.1856C257.113 58.9525 254.668 58.6106 252.686 57.6007C250.77 56.6248 249.221 54.9883 248.352 51.9756L246.431 52.5294ZM274.125 65.9384C275.955 68.2324 276.84 70.0714 277.1 71.5548C277.352 72.9925 277.029 74.157 276.284 75.1931C275.513 76.2663 274.263 77.2347 272.616 78.1573C270.975 79.0757 269.019 79.907 266.903 80.7432C262.73 82.3925 257.899 84.0651 254.196 86.4133C250.454 88.7861 247.616 92.0061 247.782 96.8179L249.781 96.7489C249.65 92.9514 251.812 90.2935 255.267 88.1022C258.761 85.8863 263.323 84.3085 267.638 82.6033C269.767 81.7622 271.828 80.8903 273.593 79.9023C275.35 78.9185 276.89 77.7772 277.909 76.3602C278.953 74.9061 279.419 73.2001 279.07 71.2096C278.729 69.2647 277.624 67.1178 275.688 64.6911L274.125 65.9384Z" fill="#823E00"/>
<path d="M275.361 88.3464L276.123 88.2371L275.913 88.9781C274.768 93.0049 271.161 96.4295 267.598 98.8586C265.806 100.081 263.999 101.068 262.471 101.769C260.972 102.456 259.691 102.892 258.945 102.975C257.621 103.198 255.805 103.249 254.143 102.808C252.472 102.365 250.885 101.4 250.205 99.5384C249.903 98.7098 249.653 98.0375 249.42 97.4986C249.186 96.9554 248.982 96.5826 248.783 96.3358C248.593 96.0997 248.427 96.0032 248.259 95.9681C248.075 95.9297 247.816 95.9491 247.415 96.0882L246.881 95.279L247.501 94.5992L247.716 94.3636L247.977 94.4453C248.016 94.4339 248.082 94.4058 248.182 94.3468C248.382 94.228 248.643 94.0287 248.969 93.7515C249.319 93.4538 249.703 93.1041 250.133 92.7121C250.523 92.3573 250.95 91.9678 251.425 91.5509C253.364 89.8497 255.909 87.8626 258.716 87.1399C261.885 86.3239 264.497 86.894 267.069 87.5129C267.18 87.5397 267.291 87.5666 267.403 87.5935C269.868 88.1892 272.321 88.7821 275.361 88.3464ZM247.956 94.4501C247.956 94.4501 247.957 94.45 247.958 94.4498L247.956 94.4501Z" fill="#187800" stroke="#005234"/>
<path d="M149.283 419.781C148.973 401.213 149.152 390.857 160.564 374.062C171.781 349.948 178.387 336.427 160.564 312.312C146.541 296.138 143.299 286.846 152.252 269.562C164.392 248.818 168.888 235.524 168.877 206.031C169.85 194.544 170.765 188.299 185.502 184.062C198.471 180.297 203.115 176.298 205.689 165.062" stroke="#823E00" stroke-width="3"/>
<path d="M170.241 422.75C169.932 404.182 159.428 407.344 167.438 392.469C179.907 369.312 185.854 347.709 168.032 323.594C154.008 307.419 154.505 299.908 163.458 282.625C175.598 261.88 175.939 251.556 175.927 222.062C176.9 210.576 161.19 181.174 175.927 176.938C188.896 173.172 214.915 162.048 217.49 150.812" stroke="#823E00" stroke-width="3"/>
<path d="M225.345 126.298L225.663 125.597L226.175 126.173C228.952 129.305 229.898 134.188 230.028 138.498C230.093 140.667 229.953 142.721 229.722 144.386C229.494 146.019 229.172 147.333 228.841 148.007C228.316 149.242 227.381 150.801 226.116 151.964C224.843 153.134 223.175 153.952 221.241 153.523C220.379 153.333 219.679 153.181 219.099 153.087C218.515 152.993 218.091 152.964 217.776 152.998C217.475 153.032 217.304 153.12 217.184 153.243C217.053 153.377 216.93 153.606 216.831 154.019L215.862 154.033L215.622 153.145L215.539 152.837L215.749 152.661C215.76 152.622 215.772 152.551 215.776 152.435C215.784 152.202 215.756 151.875 215.698 151.451C215.636 150.996 215.547 150.484 215.448 149.91C215.359 149.391 215.261 148.822 215.165 148.197C214.774 145.648 214.469 142.433 215.371 139.678C216.389 136.567 218.275 134.673 220.18 132.839C220.263 132.759 220.345 132.68 220.428 132.601C222.257 130.843 224.077 129.095 225.345 126.298ZM215.742 152.681C215.742 152.681 215.742 152.68 215.742 152.679L215.742 152.681Z" fill="#187800" stroke="#005234"/>
<path d="M191.417 140.613L190.994 139.969L190.578 140.618C188.317 144.141 188.137 149.112 188.674 153.39C188.944 155.543 189.4 157.551 189.886 159.16C190.362 160.738 190.884 161.987 191.315 162.601C192.025 163.741 193.189 165.136 194.619 166.09C196.057 167.05 197.831 167.601 199.676 166.878C200.498 166.556 201.167 166.299 201.725 166.116C202.287 165.933 202.701 165.839 203.018 165.824C203.321 165.811 203.503 165.871 203.641 165.974C203.791 166.086 203.948 166.294 204.109 166.686L205.069 166.551L205.168 165.636L205.203 165.319L204.969 165.178C204.952 165.141 204.929 165.072 204.907 164.959C204.863 164.73 204.84 164.403 204.832 163.975C204.824 163.515 204.832 162.996 204.841 162.414C204.849 161.887 204.858 161.309 204.856 160.677C204.849 158.098 204.654 154.875 203.337 152.292C201.851 149.376 199.695 147.796 197.53 146.278C197.436 146.212 197.342 146.146 197.248 146.081C195.17 144.627 193.102 143.18 191.417 140.613ZM204.979 165.196C204.979 165.196 204.979 165.196 204.978 165.195L204.979 165.196Z" fill="#187800" stroke="#005234"/>
<path d="M150.814 422.75C147.251 421.562 154.833 411.822 154.97 400.781C155.107 389.741 164.434 380.696 163.282 374.656C162.131 368.616 175.156 366.344 178.125 355.062C181.094 343.781 175.266 330.094 173.376 329.531C166.392 329.784 162.077 330.636 158.532 324.781C151.38 316.732 169.64 324.428 172.189 318.25C174.737 312.072 159.126 302.219 152.595 296.281C143.763 288.252 165.064 304.594 179.314 284.406C182.043 279.681 134.189 255.312 160.314 252.938C186.439 250.562 186.439 248.781 181.095 239.281C175.751 229.781 156.241 258.011 155.564 226.219C155.987 236.014 182.988 212.778 187.626 198.906C192.264 185.034 122.466 207.664 141.314 185.25C150.608 175.036 143.114 167.264 135.969 159.125C144.905 169.552 158.531 190.594 166.25 191.188C173.969 191.781 170.406 154.969 214.938 162.094" stroke="#823E00" stroke-width="1.5"/>
<path d="M265.306 116.994L266.054 116.812L265.915 117.57C265.16 121.687 261.896 125.44 258.582 128.198C256.914 129.586 255.21 130.742 253.755 131.585C252.329 132.412 251.095 132.968 250.361 133.122C249.064 133.47 247.261 133.694 245.565 133.414C243.859 133.132 242.187 132.323 241.333 130.535C240.953 129.739 240.64 129.093 240.357 128.579C240.071 128.061 239.833 127.709 239.612 127.482C239.4 127.265 239.226 127.185 239.055 127.166C238.868 127.146 238.612 127.19 238.226 127.366L237.618 126.612L238.17 125.876L238.361 125.621L238.629 125.677C238.666 125.662 238.73 125.628 238.823 125.56C239.012 125.422 239.252 125.199 239.55 124.892C239.87 124.562 240.219 124.178 240.61 123.746C240.964 123.356 241.352 122.928 241.785 122.467C243.552 120.589 245.897 118.368 248.622 117.381C251.699 116.266 254.353 116.584 256.972 116.955C257.085 116.971 257.199 116.987 257.312 117.003C259.823 117.361 262.322 117.717 265.306 116.994ZM238.609 125.684C238.609 125.684 238.609 125.684 238.611 125.684L238.609 125.684Z" fill="#187800" stroke="#005234"/>
<path d="M240.074 149.058L240.797 148.793L240.745 149.561C240.463 153.738 237.647 157.838 234.668 160.955C233.168 162.523 231.607 163.865 230.258 164.868C228.935 165.852 227.772 166.544 227.06 166.781C225.811 167.274 224.045 167.702 222.328 167.616C220.601 167.53 218.848 166.916 217.796 165.237C217.328 164.489 216.944 163.884 216.604 163.405C216.262 162.923 215.985 162.6 215.739 162.4C215.504 162.209 215.322 162.149 215.15 162.149C214.962 162.15 214.713 162.223 214.349 162.443L213.659 161.762L214.124 160.968L214.285 160.693L214.557 160.719C214.593 160.699 214.652 160.658 214.737 160.58C214.909 160.422 215.122 160.173 215.384 159.834C215.664 159.47 215.967 159.048 216.306 158.575C216.613 158.147 216.95 157.677 217.328 157.17C218.871 155.103 220.947 152.63 223.542 151.34C226.473 149.882 229.146 149.897 231.79 149.967C231.905 149.97 232.019 149.974 232.133 149.977C234.669 150.047 237.192 150.116 240.074 149.058ZM214.538 160.728C214.538 160.728 214.539 160.727 214.54 160.727L214.538 160.728Z" fill="#187800" stroke="#005234"/>
<path d="M351.728 28.1849L352.462 27.9528L352.375 28.7182C351.902 32.8778 348.902 36.8445 345.783 39.8219C344.214 41.3202 342.592 42.5889 341.199 43.5294C339.832 44.4517 338.639 45.0902 337.917 45.294C336.646 45.7294 334.863 46.0758 333.152 45.9121C331.43 45.7473 329.707 45.0537 328.733 43.328C328.3 42.5598 327.944 41.9372 327.626 41.4434C327.306 40.9458 327.045 40.6111 326.808 40.4C326.582 40.1981 326.403 40.13 326.231 40.1227C326.044 40.1147 325.791 40.1763 325.418 40.3789L324.76 39.6674L325.26 38.8956L325.434 38.6283L325.704 38.6663C325.741 38.6487 325.802 38.6101 325.891 38.5357C326.069 38.3858 326.294 38.1467 326.57 37.82C326.867 37.4692 327.189 37.0616 327.55 36.6047C327.876 36.1912 328.234 35.7373 328.635 35.2484C330.27 33.254 332.458 30.8785 335.109 29.708C338.103 28.3862 340.773 28.5229 343.411 28.7143C343.525 28.7226 343.639 28.731 343.753 28.7394C346.283 28.9252 348.8 29.1102 351.728 28.1849ZM325.685 38.6743C325.685 38.6743 325.686 38.6742 325.687 38.6738L325.685 38.6743Z" fill="#187800" stroke="#005234"/>
<path d="M149.641 120.503L150.205 119.979L150.454 120.708C151.809 124.669 150.798 129.539 149.255 133.565C148.479 135.591 147.558 137.432 146.702 138.879C145.862 140.298 145.057 141.386 144.492 141.88C143.531 142.818 142.068 143.895 140.452 144.48C138.826 145.069 136.972 145.18 135.352 144.038C134.632 143.53 134.043 143.12 133.545 142.81C133.042 142.497 132.663 142.307 132.359 142.217C132.068 142.132 131.876 142.147 131.718 142.214C131.545 142.287 131.343 142.451 131.093 142.794L130.194 142.433L130.315 141.521L130.357 141.206L130.618 141.124C130.644 141.092 130.682 141.031 130.731 140.926C130.828 140.714 130.928 140.402 131.038 139.988C131.156 139.544 131.272 139.038 131.402 138.471C131.52 137.957 131.649 137.394 131.802 136.78C132.424 134.277 133.383 131.194 135.277 129C137.416 126.523 139.887 125.502 142.353 124.545C142.46 124.504 142.566 124.462 142.673 124.421C145.038 123.505 147.392 122.594 149.641 120.503ZM130.604 141.139C130.604 141.14 130.605 141.139 130.606 141.138L130.604 141.139Z" fill="#187800" stroke="#005234"/>
<path d="M123.192 48.0808L123.788 47.5928L123.991 48.336C125.094 52.3747 123.778 57.1709 121.985 61.0924C121.083 63.0658 120.047 64.8452 119.102 66.2353C118.175 67.5985 117.303 68.6339 116.708 69.0909C115.69 69.9661 114.161 70.9492 112.512 71.4314C110.852 71.9166 108.995 71.9112 107.45 70.6694C106.763 70.1167 106.202 69.6704 105.724 69.3296C105.242 68.9861 104.875 68.7722 104.577 68.6638C104.292 68.5601 104.1 68.5634 103.938 68.6203C103.761 68.6824 103.549 68.8333 103.278 69.1596L102.403 68.7429L102.582 67.8405L102.643 67.5279L102.909 67.4629C102.936 67.433 102.979 67.3744 103.034 67.2725C103.144 67.0672 103.264 66.7619 103.399 66.3559C103.545 65.92 103.693 65.4222 103.858 64.8641C104.008 64.3591 104.173 63.8047 104.364 63.2022C105.143 60.7437 106.294 57.7265 108.322 55.6564C110.613 53.3188 113.143 52.456 115.664 51.6558C115.773 51.6211 115.882 51.5866 115.992 51.5521C118.41 50.787 120.816 50.0256 123.192 48.0808ZM102.894 67.4775C102.894 67.4775 102.894 67.4772 102.895 67.4764L102.894 67.4775Z" fill="#187800" stroke="#005234"/>
<path d="M99.1243 96.705L98.6514 96.0969L98.2885 96.7764C96.3164 100.469 96.534 105.438 97.411 109.66C97.8524 111.784 98.4669 113.749 99.08 115.315C99.6812 116.85 100.301 118.053 100.78 118.631C101.578 119.71 102.85 121.008 104.351 121.845C105.862 122.686 107.674 123.094 109.456 122.226C110.249 121.84 110.895 121.529 111.437 121.303C111.983 121.075 112.388 120.948 112.703 120.909C113.003 120.871 113.19 120.917 113.335 121.008C113.494 121.108 113.667 121.302 113.859 121.681L114.805 121.469L114.831 120.549L114.84 120.231L114.596 120.108C114.576 120.073 114.547 120.006 114.516 119.895C114.455 119.67 114.406 119.346 114.363 118.92C114.318 118.462 114.285 117.944 114.247 117.363C114.213 116.838 114.176 116.261 114.124 115.631C113.91 113.061 113.458 109.863 111.94 107.394C110.226 104.606 107.95 103.203 105.67 101.863C105.571 101.805 105.473 101.747 105.374 101.689C103.186 100.406 101.009 99.129 99.1243 96.705ZM114.607 120.126C114.607 120.126 114.607 120.125 114.606 120.124L114.607 120.126Z" fill="#187800" stroke="#005234"/>
<path d="M54.8822 102.158L54.1159 102.237L54.5 102.904C56.5874 106.533 60.9169 108.981 64.9622 110.474C66.998 111.225 68.9901 111.744 70.6426 112.054C72.263 112.357 73.612 112.469 74.3555 112.369C75.6941 112.263 77.4687 111.872 78.9735 111.042C80.4876 110.207 81.793 108.886 82.0009 106.915C82.0934 106.038 82.1725 105.325 82.2678 104.746C82.3637 104.162 82.4706 103.751 82.6037 103.463C82.731 103.188 82.8687 103.054 83.0232 102.979C83.1921 102.897 83.4486 102.853 83.8712 102.891L84.1925 101.977L83.4264 101.467L83.161 101.291L82.9277 101.433C82.8872 101.432 82.8156 101.421 82.7048 101.388C82.4815 101.321 82.1805 101.191 81.7968 101.001C81.3848 100.797 80.9276 100.551 80.4151 100.275C79.9514 100.025 79.4423 99.751 78.8802 99.4617C76.5872 98.2813 73.6358 96.9709 70.7374 96.9506C67.4646 96.9276 65.0691 98.1141 62.7245 99.3382C62.623 99.3912 62.5215 99.4442 62.4201 99.4973C60.173 100.673 57.9365 101.843 54.8822 102.158ZM82.9486 101.433C82.9486 101.433 82.9481 101.433 82.9468 101.433L82.9486 101.433Z" fill="#187800" stroke="#005234"/>
<path d="M71.5072 121.158L70.7409 121.237L71.125 121.904C73.2124 125.533 77.5419 127.981 81.5872 129.474C83.623 130.225 85.6151 130.744 87.2676 131.054C88.888 131.357 90.237 131.469 90.9805 131.369C92.3191 131.263 94.0937 130.872 95.5985 130.042C97.1126 129.207 98.418 127.886 98.6259 125.915C98.7184 125.038 98.7975 124.325 98.8928 123.746C98.9887 123.162 99.0956 122.751 99.2287 122.463C99.356 122.188 99.4937 122.054 99.6482 121.979C99.8171 121.897 100.074 121.853 100.496 121.891L100.817 120.977L100.051 120.467L99.786 120.291L99.5527 120.433C99.5122 120.432 99.4406 120.421 99.3298 120.388C99.1065 120.321 98.8055 120.191 98.4218 120.001C98.0098 119.797 97.5526 119.551 97.0401 119.275C96.5764 119.025 96.0673 118.751 95.5052 118.462C93.2122 117.281 90.2608 115.971 87.3624 115.951C84.0896 115.928 81.6941 117.114 79.3495 118.338C79.248 118.391 79.1465 118.444 79.0451 118.497C76.798 119.673 74.5615 120.843 71.5072 121.158ZM99.5736 120.433C99.5736 120.433 99.5731 120.433 99.5718 120.433L99.5736 120.433Z" fill="#187800" stroke="#005234"/>
<path d="M85.7499 64.4865L85.9753 63.7498L86.5563 64.2556C89.714 67.0044 91.2797 71.7249 91.9633 75.9823C92.3072 78.1247 92.4326 80.1797 92.417 81.8609C92.4017 83.5093 92.2507 84.8544 92.0092 85.5647C91.6474 86.8577 90.9212 88.5235 89.8161 89.8397C88.7042 91.1641 87.1558 92.1899 85.182 92.0133C84.3034 91.9348 83.5888 91.8748 83.002 91.8564C82.4106 91.8379 81.9867 91.8634 81.6788 91.9384C81.3842 92.0102 81.2262 92.1194 81.1229 92.2566C81.0101 92.4065 80.9173 92.6497 80.8727 93.0717L79.9135 93.2103L79.5617 92.3603L79.4398 92.0659L79.6246 91.8645C79.6309 91.8244 79.6338 91.7521 79.6228 91.6369C79.6005 91.405 79.5309 91.0845 79.4187 90.6713C79.2982 90.2277 79.1449 89.7317 78.9731 89.1755C78.8176 88.6723 78.6468 88.1198 78.4715 87.5125C77.756 85.0347 77.0401 81.8858 77.5797 79.0381C78.189 75.8224 79.8156 73.7011 81.4693 71.6369C81.5409 71.5475 81.6126 71.4582 81.6842 71.3689C83.2717 69.3911 84.8517 67.4226 85.7499 64.4865ZM79.6203 91.8849C79.6203 91.885 79.6205 91.8844 79.6209 91.8832L79.6203 91.8849Z" fill="#187800" stroke="#005234"/>
<path d="M49.1633 40.9864L49.8395 40.6173L49.9013 41.3852C50.2367 45.5582 48.0555 50.0277 45.5673 53.5494C44.3152 55.3215 42.9679 56.8783 41.7813 58.0693C40.6178 59.2371 39.5693 60.0932 38.9 60.432C37.7373 61.1035 36.0534 61.7866 34.343 61.9549C32.6221 62.1242 30.7978 61.7749 29.5102 60.2687C28.937 59.5982 28.4681 59.0557 28.0614 58.6322C27.6516 58.2054 27.3307 57.9272 27.0581 57.7656C26.7973 57.6109 26.6079 57.5786 26.4382 57.6044C26.2527 57.6327 26.0164 57.7417 25.6894 58.0122L24.9067 57.4406L25.2495 56.587L25.3683 56.2912L25.6412 56.2765C25.6737 56.2522 25.7264 56.2025 25.799 56.1125C25.9453 55.9311 26.1196 55.6533 26.3283 55.2795C26.5523 54.8781 26.7896 54.4163 27.0556 53.8985C27.2963 53.43 27.5605 52.9156 27.8598 52.3589C29.0808 50.0872 30.7707 47.3354 33.1476 45.6768C35.8317 43.8039 38.4778 43.4247 41.1034 43.1052C41.2171 43.0914 41.3308 43.0777 41.4444 43.064C43.9622 42.76 46.4682 42.4574 49.1633 40.9864ZM25.6238 56.2881C25.6238 56.2881 25.6244 56.2878 25.6254 56.2872L25.6238 56.2881Z" fill="#187800" stroke="#005234"/>
<path d="M1.72333 74.3637L1.14244 74.8697L1.84115 75.1942C5.6381 76.9575 10.587 76.4636 14.7533 75.3528C16.85 74.7938 18.7777 74.0708 20.3065 73.3714C21.8056 72.6857 22.9725 71.9996 23.5226 71.4896C24.556 70.6323 25.7811 69.2902 26.5328 67.7447C27.289 66.1896 27.5948 64.3575 26.6292 62.6271C26.1994 61.8568 25.8534 61.2286 25.5975 60.7002C25.3395 60.1677 25.19 59.7702 25.1331 59.4585C25.0786 59.1602 25.114 58.9714 25.1971 58.8212C25.288 58.657 25.4723 58.4732 25.8395 58.2605L25.5752 57.3281L24.6556 57.3532L24.337 57.362L24.2285 57.6128C24.1944 57.6348 24.1296 57.667 24.0199 57.7038C23.799 57.778 23.478 57.845 23.055 57.911C22.6008 57.9817 22.0853 58.0439 21.5074 58.1136C20.9844 58.1767 20.4104 58.2459 19.7843 58.3333C17.2301 58.6897 14.0628 59.3192 11.6821 60.9725C8.99392 62.8394 7.71959 65.1893 6.50852 67.5407C6.45607 67.6425 6.40375 67.7443 6.35143 67.8461C5.19225 70.1018 4.03853 72.3469 1.72333 74.3637ZM24.2454 57.6005C24.2454 57.6005 24.245 57.6009 24.244 57.6017L24.2454 57.6005Z" fill="#187800" stroke="#005234"/>
<path d="M172.782 420.375C178.917 409.49 179.788 372.638 174.563 357.438C168.032 338.438 151.407 332.5 152 299.25C152.594 266 168.032 274.676 168.032 247.305C168.032 212.868 162.094 184.062 138.344 175.75C114.594 167.438 93.8129 120.531 93.8129 103.906C93.8129 87.2812 77.7817 80.75 62.3442 74.2188C46.9067 67.6875 35.6255 70.0625 24.938 57.5938" stroke="#823E00" stroke-width="2" stroke-linecap="round" stroke-linejoin="round"/>
<path d="M157.938 421.562C171 398.406 165.21 386.024 157.344 368.719C145.469 342.594 176.938 316.469 172.782 298.062C170.035 285.9 186.438 191.188 152 185.844C130.625 182.527 120.559 145.417 114 126.469C108.657 111.031 76.0004 96.7812 67.0941 90.8438C58.1879 84.9062 62.344 52.25 67.094 39.1875" stroke="#823E00" stroke-width="2"/>
<path d="M311.719 467.875C298.656 454.812 297.469 474.406 280.844 460.75C251.195 436.395 254.469 483.107 231.562 455.406C180.5 393.656 185.25 451.844 158.531 373.469" stroke="#823E00" stroke-width="6" stroke-linecap="round" stroke-linejoin="round"/>
<path d="M5.9375 469.063C22.5625 449.469 53.9291 480.161 87.2813 450.062C111.625 428.093 113.406 463.719 129.438 438.781C136.399 427.953 146.656 422.156 153.781 400.188" stroke="#823E00" stroke-width="6" stroke-linecap="round" stroke-linejoin="round"/>
<path d="M27.3126 470.25C46.9064 428.094 109.844 486.875 121.125 459.562C132.705 431.526 150.002 446.799 152.594 422.156" stroke="#823E00" stroke-width="6" stroke-linecap="round" stroke-linejoin="round"/>
<path d="M271.939 469.657C262.438 459.563 259.469 458.375 242.844 451.844C207.735 438.051 197.719 447.688 167.436 412.657" stroke="#823E00" stroke-width="6" stroke-linecap="round" stroke-linejoin="round"/>
<path d="M205.438 469.063C203.063 444.125 176.873 484.706 172.188 456.594C168.032 431.656 158.748 446.799 156.157 422.156" stroke="#823E00" stroke-width="6" stroke-linecap="round" stroke-linejoin="round"/>
<path d="M73.6241 469.064C75.999 444.126 107.138 466.289 120.532 448.875C132.406 433.437 115.188 409.094 157.344 425.126" stroke="#823E00" stroke-width="6" stroke-linecap="round" stroke-linejoin="round"/>
<path d="M239.283 469.166C236.908 444.228 192.379 470.947 192.376 448.978C192.375 446.5 238.095 425.229 155.563 425.229" stroke="#823E00" stroke-width="6" stroke-linecap="round" stroke-linejoin="round"/>
<path d="M194.157 469.063C162.688 420.969 167.176 468.07 153.782 450.656C141.907 435.218 207.813 416.218 165.656 432.251" stroke="#823E00" stroke-width="6" stroke-linecap="round" stroke-linejoin="round"/>
<path d="M127.656 469.062C144.811 435.666 156.812 480.348 157.858 423.288" stroke="#823E00" stroke-width="6" stroke-linecap="round" stroke-linejoin="round"/>
<path d="M137.444 432.055C136.68 430.585 134.869 430.012 133.399 430.775C131.928 431.539 131.355 433.349 132.119 434.82L137.444 432.055ZM187.626 413.844L190.049 415.612C190.212 415.388 190.344 415.143 190.44 414.884L187.626 413.844ZM181.688 364.562L178.691 364.427L181.688 364.562ZM179.173 284.032C180.278 282.797 180.173 280.9 178.938 279.796C177.703 278.691 175.807 278.796 174.702 280.031L179.173 284.032ZM132.119 434.82C134.305 439.03 136.965 442.083 140.074 444.01C143.21 445.954 146.602 446.627 150.006 446.394C156.636 445.942 163.336 442.057 169.062 437.583C174.877 433.039 180.121 427.538 183.885 423.218C185.774 421.049 187.307 419.159 188.371 417.807C188.902 417.13 189.318 416.588 189.602 416.211C189.744 416.023 189.854 415.876 189.929 415.775C189.966 415.724 189.995 415.685 190.016 415.658C190.026 415.644 190.033 415.633 190.039 415.626C190.042 415.622 190.044 415.619 190.046 415.616C190.047 415.615 190.048 415.614 190.048 415.613C190.049 415.612 190.049 415.612 187.626 413.844C185.202 412.076 185.202 412.075 185.202 412.075C185.202 412.075 185.202 412.075 185.202 412.076C185.201 412.076 185.2 412.078 185.199 412.08C185.195 412.085 185.19 412.092 185.182 412.103C185.167 412.124 185.143 412.156 185.11 412.2C185.045 412.288 184.946 412.421 184.814 412.595C184.552 412.943 184.16 413.454 183.654 414.097C182.642 415.385 181.173 417.196 179.361 419.276C175.721 423.454 170.76 428.641 165.368 432.855C159.887 437.138 154.377 440.082 149.597 440.408C147.295 440.566 145.181 440.116 143.235 438.91C141.263 437.688 139.266 435.564 137.444 432.055L132.119 434.82ZM190.44 414.884C196.172 399.372 186.325 384.372 175.459 375.258C169.928 370.619 163.759 367.152 158.395 365.626C155.727 364.867 153.046 364.528 150.659 364.937C148.186 365.361 145.898 366.634 144.597 369.1L149.904 371.9C150.141 371.45 150.585 371.037 151.673 370.851C152.849 370.649 154.56 370.773 156.754 371.397C161.114 372.638 166.547 375.614 171.603 379.855C181.909 388.5 189.172 401.003 184.812 412.804L190.44 414.884ZM144.597 369.1C143.48 371.218 143.251 373.491 144.182 375.605C145.053 377.583 146.74 378.962 148.507 379.897C152.028 381.761 157.044 382.507 161.989 382.243C166.978 381.976 172.374 380.659 176.677 377.922C181.063 375.133 184.409 370.776 184.684 364.698L178.691 364.427C178.523 368.139 176.573 370.877 173.457 372.859C170.26 374.893 165.947 376.023 161.669 376.251C157.347 376.482 153.534 375.77 151.314 374.594C150.21 374.01 149.799 373.473 149.673 373.187C149.607 373.037 149.483 372.698 149.904 371.9L144.597 369.1ZM184.684 364.698C184.922 359.458 184.072 355.407 182.464 351.961C180.882 348.571 178.64 345.942 176.445 343.519C172.071 338.692 167.464 334.212 164.999 324.628L159.188 326.122C162.067 337.319 167.693 342.795 171.998 347.547C174.143 349.915 175.852 351.981 177.027 354.498C178.176 356.96 178.89 360.029 178.691 364.427L184.684 364.698ZM164.999 324.628C162.61 315.337 165.896 305.343 170.161 297.318C172.263 293.364 174.532 290.022 176.277 287.668C177.147 286.494 177.883 285.571 178.396 284.949C178.653 284.637 178.853 284.401 178.986 284.246C179.053 284.169 179.103 284.112 179.134 284.076C179.15 284.058 179.161 284.045 179.168 284.038C179.171 284.034 179.173 284.032 179.174 284.031C179.175 284.03 179.175 284.03 179.175 284.03C179.175 284.03 179.174 284.031 179.174 284.031C179.174 284.031 179.173 284.032 176.938 282.031C174.702 280.031 174.701 280.032 174.7 280.032C174.7 280.033 174.699 280.034 174.699 280.034C174.697 280.036 174.695 280.038 174.693 280.04C174.689 280.045 174.684 280.051 174.678 280.058C174.665 280.072 174.647 280.092 174.625 280.117C174.581 280.168 174.518 280.24 174.438 280.333C174.278 280.519 174.05 280.788 173.765 281.134C173.195 281.826 172.395 282.829 171.457 284.095C169.584 286.621 167.14 290.218 164.863 294.502C160.37 302.954 156.234 314.632 159.188 326.122L164.999 324.628Z" fill="#823E00"/>
<path d="M185.922 469.545C185.655 470.9 184.341 471.782 182.986 471.515C181.631 471.249 180.749 469.935 181.016 468.58L185.922 469.545ZM97.3749 469.062L99.3811 470.554C98.7461 471.408 97.6401 471.767 96.6249 471.447C95.6097 471.128 94.908 470.201 94.876 469.137L97.3749 469.062ZM141.223 403.156L143.721 403.056L141.223 403.156ZM151.714 294.345C150.488 293.711 150.009 292.202 150.643 290.976C151.278 289.75 152.786 289.27 154.012 289.905L151.714 294.345ZM181.016 468.58C182.827 459.378 178.917 451.362 171.587 445.206C164.209 439.012 153.528 434.889 142.554 433.799C131.572 432.709 120.642 434.686 112.648 440.258C104.78 445.741 99.4514 454.908 99.8738 468.988L94.876 469.137C94.4078 453.529 100.411 442.691 109.789 436.156C119.039 429.709 131.268 427.654 143.048 428.824C154.836 429.994 166.52 434.423 174.802 441.377C183.13 448.371 188.174 458.1 185.922 469.545L181.016 468.58ZM95.3688 467.571C103.914 456.079 116.693 437.923 127.956 424.17C133.571 417.313 138.953 411.37 143.352 407.865C145.499 406.154 147.723 404.765 149.825 404.37C150.939 404.16 152.168 404.202 153.327 404.778C154.495 405.359 155.295 406.335 155.812 407.442L151.282 409.558C151.123 409.217 151.027 409.219 151.102 409.256C151.166 409.288 151.104 409.217 150.749 409.284C149.914 409.441 148.496 410.16 146.468 411.775C142.518 414.922 137.423 420.501 131.824 427.338C120.658 440.973 108.055 458.889 99.3811 470.554L95.3688 467.571ZM155.812 407.442C157.372 410.783 157.551 413.988 156.213 416.472C154.845 419.011 152.188 420.215 149.465 419.953C143.964 419.422 139.135 413.517 138.725 403.256L143.721 403.056C144.088 412.243 148.126 414.801 149.945 414.976C150.882 415.066 151.497 414.684 151.812 414.101C152.156 413.462 152.426 412.008 151.282 409.558L155.812 407.442ZM138.725 403.256C138.504 397.748 140.55 393.024 143.345 388.592C144.74 386.38 146.357 384.187 148.019 381.982C149.698 379.754 151.418 377.52 153.113 375.125C159.789 365.689 165.822 354.104 163.428 335.494L168.388 334.856C170.996 355.133 164.303 367.966 157.194 378.013C155.443 380.488 153.651 382.817 152.012 384.991C150.355 387.189 148.849 389.239 147.574 391.259C145.031 395.293 143.558 398.992 143.721 403.056L138.725 403.256ZM163.428 335.494C160.944 316.181 157.727 305.682 155.227 300.087C153.981 297.297 152.933 295.769 152.278 294.984C151.952 294.593 151.727 294.39 151.626 294.307C151.576 294.266 151.557 294.254 151.571 294.263C151.578 294.268 151.593 294.278 151.617 294.292C151.629 294.299 151.643 294.307 151.659 294.316C151.667 294.32 151.676 294.325 151.685 294.33C151.69 294.332 151.695 294.335 151.699 294.337C151.702 294.339 151.706 294.341 151.707 294.341C151.711 294.343 151.714 294.345 152.863 292.125C154.012 289.905 154.016 289.907 154.02 289.909C154.022 289.909 154.026 289.912 154.028 289.913C154.034 289.916 154.039 289.919 154.045 289.922C154.056 289.928 154.067 289.934 154.079 289.941C154.103 289.954 154.129 289.968 154.156 289.985C154.211 290.017 154.272 290.055 154.339 290.099C154.474 290.189 154.632 290.304 154.811 290.452C155.17 290.749 155.612 291.175 156.118 291.782C157.128 292.993 158.403 294.936 159.793 298.047C162.565 304.255 165.87 315.281 168.388 334.856L163.428 335.494Z" fill="#823E00"/>
<path d="M158.531 469.656C146.735 447.257 235.719 471.437 162.688 420.375" stroke="#823E00" stroke-width="6" stroke-linecap="round" stroke-linejoin="round"/>
<path d="M141.907 467.281C167.926 440.944 83.7197 450.656 159.72 418.594" stroke="#823E00" stroke-width="6" stroke-linecap="round" stroke-linejoin="round"/>
<path d="M218.5 468.47C211.969 416.812 134.781 468.47 181.094 394.844" stroke="#823E00" stroke-width="6" stroke-linecap="round" stroke-linejoin="round"/>
<path d="M161.492 416.813C161.805 398.208 185.522 387.066 171.104 384.092C157.887 387.066 138.656 346.382 156.689 322.22C170.878 306.013 172.957 297.893 163.898 280.576C151.615 259.79 148.266 248.85 148.278 219.299C147.294 207.789 163.19 178.329 148.278 174.085C111.631 162.186 99.015 155.642 114.635 115.188" stroke="#823E00" stroke-width="3"/>
<path d="M196.531 428.094C196.841 409.526 165.656 403.75 166.25 377.625C155.034 353.51 149.613 335.24 167.436 311.125C181.459 294.95 184.701 285.658 175.748 268.375C163.608 247.63 162.685 217.312 157.935 204.844C132.404 203.656 155.56 197.125 141.904 190C129.931 183.753 119.935 174.562 130.029 146.062" stroke="#823E00" stroke-width="3"/>
<path d="M160.906 422.156C154.771 411.271 147.369 375.013 152.594 359.812C159.125 340.812 176.938 341.406 176.344 308.156C175.75 274.906 160.906 274.371 160.906 247C160.906 212.562 187.031 147.844 210.781 139.531C234.531 131.219 257.571 103.278 256.5 86.6875C254.125 49.875 306.375 46.9062 321.813 40.375" stroke="#823E00" stroke-width="2" stroke-linecap="round" stroke-linejoin="round"/>
<path d="M152 350.312L149.735 349.255L152 350.312ZM152 225.031L149.537 224.603L152 225.031ZM127.063 154.375L128.078 152.09L127.063 154.375ZM77.2549 94.774C76.7239 93.4995 77.3266 92.0359 78.6011 91.5048C79.8756 90.9738 81.3392 91.5765 81.8703 92.851L77.2549 94.774ZM161.566 417.77C158.161 409.56 153.482 396.363 150.484 383.383C148.986 376.894 147.893 370.391 147.607 364.555C147.324 358.78 147.815 353.369 149.735 349.255L154.266 351.37C152.86 354.381 152.332 358.816 152.601 364.31C152.867 369.744 153.896 375.932 155.356 382.258C158.277 394.908 162.86 407.836 166.184 415.855L161.566 417.77ZM149.735 349.255C151.962 344.481 155.077 340.484 158.336 336.874C159.964 335.07 161.651 333.338 163.287 331.66C164.935 329.969 166.528 328.334 168.031 326.669C173.986 320.068 178.178 313.357 176.834 303.139L181.791 302.486C183.415 314.831 178.108 322.964 171.743 330.018C170.165 331.767 168.503 333.472 166.868 335.149C165.222 336.838 163.602 338.502 162.048 340.224C158.942 343.664 156.194 347.237 154.266 351.37L149.735 349.255ZM176.834 303.139C176.143 297.886 173.939 291.969 170.945 285.535C167.947 279.094 164.3 272.422 160.768 265.504C157.271 258.656 153.928 251.642 151.728 244.796C149.53 237.958 148.408 231.097 149.537 224.603L154.463 225.46C153.527 230.84 154.416 236.819 156.488 243.266C158.558 249.706 161.744 256.422 165.221 263.23C168.662 269.969 172.431 276.879 175.478 283.426C178.529 289.981 180.998 296.458 181.791 302.486L176.834 303.139ZM149.537 224.603C151.832 211.408 150.257 196.215 145.85 183.338C141.404 170.349 134.299 160.327 126.047 156.66L128.078 152.09C138.232 156.604 145.971 168.254 150.58 181.719C155.228 195.297 156.918 211.342 154.463 225.46L149.537 224.603ZM126.047 156.66C122.358 155.02 118.051 151.582 113.633 147.255C109.163 142.876 104.394 137.402 99.7803 131.467C90.574 119.624 81.8238 105.739 77.2549 94.774L81.8703 92.851C86.2076 103.261 94.6762 116.754 103.728 128.398C108.243 134.206 112.863 139.501 117.132 143.683C121.453 147.915 125.236 150.828 128.078 152.09L126.047 156.66Z" fill="#823E00"/>
<path d="M209.582 137.931L209.604 137.161L208.892 137.454C205.02 139.046 202.025 143.017 200.014 146.831C199.002 148.75 198.225 150.657 197.701 152.254C197.188 153.821 196.9 155.144 196.901 155.894C196.83 157.235 196.984 159.045 197.609 160.646C198.239 162.257 199.377 163.724 201.303 164.189C202.161 164.396 202.857 164.568 203.419 164.739C203.985 164.911 204.378 165.071 204.646 165.24C204.902 165.403 205.017 165.557 205.07 165.72C205.129 165.898 205.139 166.158 205.046 166.572L205.911 167.011L206.516 166.318L206.726 166.078L206.615 165.828C206.622 165.788 206.643 165.719 206.69 165.613C206.785 165.401 206.954 165.119 207.193 164.764C207.449 164.382 207.753 163.962 208.094 163.49C208.402 163.063 208.741 162.594 209.102 162.075C210.573 159.957 212.26 157.203 212.661 154.333C213.114 151.091 212.252 148.561 211.347 146.075C211.307 145.968 211.268 145.86 211.229 145.753C210.359 143.371 209.492 141 209.582 137.931ZM206.613 165.849C206.613 165.849 206.613 165.849 206.613 165.847L206.613 165.849Z" fill="#187800" stroke="#005234"/>
<path d="M167.239 430.507C167.874 432.038 167.147 433.793 165.617 434.427C164.086 435.062 162.331 434.336 161.697 432.805L167.239 430.507ZM150.812 377.031L148.094 375.763L150.812 377.031ZM150.812 262.438L147.857 261.923L150.812 262.438ZM177.531 222.656L180.528 222.799L177.531 222.656ZM235.499 123.226C236.962 122.448 238.778 123.004 239.556 124.468C240.333 125.931 239.777 127.747 238.314 128.524L235.499 123.226ZM161.697 432.805C158.468 425.019 153.218 414.504 149.788 404.582C146.378 394.719 144.218 384.068 148.094 375.763L153.531 378.3C150.757 384.244 152.06 392.791 155.458 402.621C158.836 412.391 163.738 422.064 167.239 430.507L161.697 432.805ZM148.094 375.763C150.331 370.969 153.524 366.621 156.868 362.533C160.376 358.244 163.654 354.684 166.94 350.53C173.255 342.545 177.659 334.62 176.338 324.579L182.287 323.796C183.934 336.317 178.245 345.908 171.646 354.252C168.475 358.261 164.59 362.569 161.512 366.332C158.269 370.297 155.45 374.187 153.531 378.3L148.094 375.763ZM176.338 324.579C175.674 319.535 173.502 314.76 170.485 309.956C167.442 305.108 163.722 300.497 160.004 295.563C152.785 285.982 145.546 275.213 147.857 261.923L153.768 262.952C151.949 273.412 157.475 282.236 164.796 291.952C168.349 296.667 172.343 301.63 175.567 306.765C178.818 311.943 181.466 317.559 182.287 323.796L176.338 324.579ZM147.857 261.923C149.118 254.671 151.496 249.798 154.55 246.249C157.561 242.751 161.07 240.747 164.012 239.056C167.059 237.304 169.396 235.931 171.172 233.689C172.872 231.542 174.259 228.302 174.535 222.514L180.528 222.799C180.21 229.479 178.553 234.033 175.875 237.414C173.272 240.702 169.895 242.594 167.003 244.257C164.008 245.979 161.357 247.538 159.098 250.163C156.883 252.737 154.882 256.548 153.768 262.952L147.857 261.923ZM174.535 222.514C174.749 218.012 176.275 210.877 178.937 202.524C181.618 194.11 185.514 184.267 190.59 174.306C200.69 154.486 215.692 133.748 235.499 123.226L238.314 128.524C220.121 138.189 205.827 157.619 195.935 177.031C191.015 186.686 187.241 196.226 184.654 204.346C182.047 212.527 180.705 219.077 180.528 222.799L174.535 222.514Z" fill="#823E00"/>
<path d="M178.521 423.382C179.156 424.913 178.43 426.668 176.899 427.302C175.369 427.937 173.614 427.211 172.979 425.68L178.521 423.382ZM179.906 388.312L182.589 389.654L179.906 388.312ZM150.812 344.969L153.392 343.437L153.392 343.437L150.812 344.969ZM180.5 266L177.544 265.486L180.5 266ZM118.191 138.408C116.844 137.444 116.533 135.57 117.498 134.223C118.462 132.875 120.336 132.565 121.683 133.529L118.191 138.408ZM172.979 425.68C169.415 417.084 168.928 410.257 170.237 403.985C171.506 397.904 174.464 392.488 177.223 386.971L182.589 389.654C179.665 395.503 177.181 400.081 176.11 405.211C175.08 410.15 175.357 415.749 178.521 423.382L172.979 425.68ZM177.223 386.971C178.914 383.588 178.796 380.917 177.701 378.392C176.51 375.646 174.079 372.886 170.67 369.734C168.99 368.18 167.156 366.604 165.206 364.919C163.271 363.248 161.238 361.482 159.237 359.609C155.238 355.867 151.26 351.599 148.233 346.5L153.392 343.437C156.005 347.839 159.524 351.66 163.336 355.229C165.241 357.011 167.192 358.706 169.129 360.379C171.049 362.039 172.972 363.691 174.744 365.329C178.237 368.559 181.484 372.033 183.206 376.005C185.024 380.197 185.054 384.724 182.589 389.654L177.223 386.971ZM148.233 346.5C144.679 340.515 145.24 332.802 147.385 325.151C149.562 317.384 153.581 308.946 157.927 300.945C162.276 292.939 167.073 285.158 170.817 278.821C172.704 275.625 174.316 272.812 175.512 270.467C176.75 268.038 177.384 266.408 177.544 265.486L183.455 266.514C183.125 268.413 182.1 270.754 180.857 273.192C179.571 275.715 177.878 278.664 175.983 281.872C172.161 288.341 167.48 295.929 163.2 303.809C158.917 311.694 155.155 319.66 153.162 326.771C151.136 333.999 151.137 339.639 153.392 343.437L148.233 346.5ZM177.544 265.486C178.655 259.098 177.544 256.356 176.179 254.819C175.416 253.961 174.375 253.245 172.971 252.537C171.516 251.804 169.962 251.213 168.054 250.409C164.397 248.869 160.04 246.786 156.714 242.292C153.383 237.793 151.375 231.291 151.375 221.469H157.375C157.375 230.516 159.226 235.602 161.536 238.722C163.85 241.849 166.915 243.419 170.383 244.88C172.038 245.577 173.972 246.323 175.671 247.179C177.421 248.061 179.201 249.186 180.665 250.834C183.752 254.31 184.719 259.246 183.455 266.514L177.544 265.486ZM151.375 221.469C151.375 219.024 151.852 216.527 152.469 214.069C153.075 211.659 153.905 208.962 154.62 206.388C156.096 201.077 157.355 195.375 156.875 188.962C155.931 176.342 148.121 159.829 118.191 138.408L121.683 133.529C152.316 155.452 161.725 173.376 162.859 188.514C163.418 195.98 161.931 202.488 160.401 207.994C159.614 210.828 158.876 213.192 158.289 215.53C157.714 217.819 157.375 219.757 157.375 221.469H151.375Z" fill="#823E00"/>
<path d="M155.562 242.844C144.083 238.49 141.788 221.825 141.313 204.25C140.719 182.281 143.094 160.906 141.313 142.5C139.531 124.094 111.625 119.938 98.5628 120.531C88.1129 121.006 104.302 75.4063 102.719 65.3125" stroke="#823E00" stroke-width="1.5"/>
<path d="M167.438 265.406C178.917 261.052 181.213 244.388 181.688 226.812C182.282 204.844 179.907 183.469 181.688 165.062C183.469 146.656 211.375 142.5 224.438 143.094C234.888 143.569 218.698 97.9688 220.281 87.875" stroke="#823E00" stroke-width="1.5"/>
<path d="M301.031 456L300.46 457.917L301.031 456ZM349.719 463.125L349.545 465.117L349.719 463.125ZM367.507 472.527C368.437 473.123 369.674 472.854 370.271 471.925C370.868 470.995 370.598 469.758 369.669 469.161L367.507 472.527ZM175.965 427.556C190.934 446.417 204.562 457.347 217.112 463.159C229.702 468.988 241.072 469.604 251.376 468.072C261.576 466.555 270.835 462.899 278.927 460.278C287.187 457.602 294.138 456.034 300.46 457.917L301.602 454.083C293.971 451.81 285.93 453.804 277.695 456.472C269.292 459.194 260.553 462.663 250.788 464.116C241.127 465.552 230.566 464.98 218.793 459.529C206.981 454.059 193.816 443.614 179.098 425.069L175.965 427.556ZM300.46 457.917C308.182 460.217 311.427 462.604 314.608 464.724C316.249 465.818 317.943 466.892 320.183 467.795C322.421 468.697 325.127 469.398 328.82 469.86L329.316 465.89C325.884 465.461 323.527 464.83 321.678 464.085C319.829 463.34 318.41 462.451 316.827 461.396C313.56 459.219 309.912 456.559 301.602 454.083L300.46 457.917ZM328.82 469.86C331.989 470.256 334.489 470.099 336.601 469.605C338.71 469.112 340.333 468.304 341.723 467.537C344.487 466.009 346.135 464.819 349.545 465.117L349.893 461.133C345.058 460.71 342.319 462.637 339.788 464.036C338.529 464.731 337.278 465.339 335.69 465.71C334.104 466.081 332.085 466.237 329.316 465.89L328.82 469.86ZM349.545 465.117C353.115 465.43 357.549 467.211 361.241 469.037C363.054 469.934 364.628 470.811 365.748 471.463C366.308 471.789 366.752 472.058 367.055 472.244C367.206 472.337 367.322 472.409 367.398 472.457C367.436 472.482 367.465 472.5 367.483 472.511C367.492 472.517 367.499 472.521 367.503 472.524C367.505 472.525 367.506 472.526 367.507 472.526C367.507 472.527 367.508 472.527 367.508 472.527C367.508 472.527 367.508 472.527 367.508 472.527C367.507 472.527 367.507 472.527 368.588 470.844C369.669 469.161 369.669 469.161 369.668 469.161C369.668 469.16 369.668 469.16 369.667 469.16C369.667 469.16 369.666 469.159 369.665 469.158C369.663 469.157 369.66 469.156 369.657 469.153C369.651 469.149 369.641 469.143 369.63 469.136C369.606 469.121 369.572 469.099 369.528 469.072C369.441 469.017 369.314 468.937 369.15 468.837C368.824 468.636 368.352 468.351 367.762 468.007C366.583 467.321 364.927 466.398 363.014 465.452C359.255 463.592 354.254 461.514 349.893 461.133L349.545 465.117Z" fill="#823E00"/>
<path d="M182.875 394.25C182.522 407.106 181.352 412.596 178.125 420.375" stroke="#823E00" stroke-width="3"/>
<path d="M148.219 471.437C148.219 472.542 149.114 473.437 150.219 473.437C151.323 473.438 152.219 472.542 152.219 471.438L148.219 471.437ZM163.281 426.312L163.06 424.325L163.281 426.312ZM152.219 471.438C152.219 469.337 151.83 467.56 151.046 466.083C150.255 464.592 149.126 463.527 147.842 462.768C145.396 461.321 142.276 460.942 139.786 460.622C138.463 460.452 137.28 460.3 136.216 460.063C135.15 459.826 134.351 459.532 133.775 459.157C133.242 458.81 132.885 458.387 132.673 457.781C132.445 457.131 132.335 456.121 132.598 454.548L128.652 453.89C128.321 455.879 128.378 457.615 128.897 459.101C129.432 460.631 130.401 461.734 131.594 462.51C132.743 463.258 134.069 463.683 135.346 463.967C136.624 464.252 138.001 464.425 139.276 464.589C141.981 464.937 144.205 465.263 145.805 466.21C146.543 466.647 147.112 467.201 147.513 467.958C147.921 468.728 148.219 469.827 148.219 471.437L152.219 471.438ZM132.598 454.548C132.758 453.586 133.391 452.711 134.903 451.92C136.455 451.108 138.702 450.521 141.554 450.133C147.248 449.359 154.629 449.464 161.999 449.539C169.235 449.612 176.536 449.661 181.686 448.668C184.224 448.179 186.622 447.373 188.189 445.875C189.016 445.084 189.618 444.094 189.853 442.905C190.085 441.735 189.933 440.524 189.515 439.315L185.735 440.623C185.984 441.343 185.99 441.82 185.929 442.128C185.873 442.415 185.731 442.691 185.425 442.983C184.727 443.651 183.298 444.283 180.928 444.74C176.263 445.64 169.425 445.614 162.04 445.539C154.789 445.466 147.066 445.348 141.015 446.17C137.995 446.58 135.209 447.245 133.048 448.376C130.846 449.529 129.086 451.289 128.652 453.89L132.598 454.548ZM189.515 439.315C186.631 430.984 181.399 426.975 176.076 425.229C170.883 423.525 165.755 424.025 163.06 424.325L163.502 428.3C166.151 428.006 170.522 427.616 174.829 429.029C179.007 430.4 183.275 433.516 185.735 440.623L189.515 439.315ZM163.06 424.325C163.347 424.293 163.461 424.396 163.314 424.317C163.183 424.248 162.956 424.092 162.633 423.797C161.987 423.207 161.187 422.273 160.26 421.031C158.418 418.562 156.296 415.172 154.19 411.658C152.143 408.241 150 404.514 148.361 401.799C147.521 400.41 146.754 399.184 146.11 398.257C145.79 397.795 145.476 397.373 145.182 397.031C144.946 396.755 144.529 396.294 143.988 396.024L142.199 399.601C141.955 399.479 141.922 399.374 142.147 399.636C142.314 399.831 142.539 400.127 142.825 400.538C143.393 401.356 144.106 402.492 144.937 403.867C146.637 406.682 148.591 410.095 150.759 413.714C152.869 417.236 155.081 420.778 157.054 423.423C158.035 424.737 159.012 425.906 159.934 426.749C160.395 427.17 160.9 427.564 161.438 427.85C161.96 428.127 162.681 428.392 163.502 428.3L163.06 424.325Z" fill="#823E00"/>
<path d="M65.6075 13.424L65.3821 12.6873L64.8011 13.1931C61.6435 15.9419 60.0777 20.6624 59.3942 24.9198C59.0502 27.0622 58.9248 29.1172 58.9404 30.7984C58.9557 32.4468 59.1067 33.7919 59.3483 34.5022C59.71 35.7952 60.4363 37.461 61.5413 38.7772C62.6533 40.1016 64.2017 41.1274 66.1754 40.9508C67.054 40.8723 67.7686 40.8123 68.3554 40.7939C68.9468 40.7754 69.3707 40.8009 69.6787 40.8759C69.9732 40.9477 70.1312 41.0569 70.2345 41.1941C70.3474 41.344 70.4401 41.5872 70.4847 42.0092L71.4439 42.1478L71.7957 41.2978L71.9176 41.0034L71.7328 40.802C71.7265 40.7619 71.7236 40.6896 71.7347 40.5744C71.7569 40.3425 71.8265 40.022 71.9387 39.6088C72.0592 39.1652 72.2125 38.6692 72.3844 38.113C72.5399 37.6098 72.7106 37.0573 72.8859 36.45C73.6014 33.9722 74.3173 30.8233 73.7777 27.9756C73.1684 24.7599 71.5418 22.6386 69.8881 20.5744C69.8165 20.485 69.7448 20.3957 69.6732 20.3064C68.0857 18.3286 66.5057 16.3601 65.6075 13.424ZM71.7371 40.8224C71.7371 40.8225 71.7369 40.8219 71.7366 40.8207L71.7371 40.8224Z" fill="#187800" stroke="#005234"/>
<path d="M108.312 39.549L108.538 38.8123L109.119 39.3181C112.276 42.0669 113.842 46.7874 114.526 51.0448C114.87 53.1872 114.995 55.2422 114.979 56.9234C114.964 58.5718 114.813 59.9169 114.572 60.6272C114.21 61.9202 113.484 63.586 112.379 64.9022C111.267 66.2266 109.718 67.2524 107.745 67.0758C106.866 66.9973 106.151 66.9373 105.564 66.9189C104.973 66.9004 104.549 66.9259 104.241 67.0009C103.947 67.0727 103.789 67.1819 103.685 67.3191C103.573 67.469 103.48 67.7122 103.435 68.1342L102.476 68.2728L102.124 67.4228L102.002 67.1284L102.187 66.927C102.193 66.8869 102.196 66.8146 102.185 66.6994C102.163 66.4675 102.093 66.147 101.981 65.7338C101.861 65.2902 101.707 64.7942 101.536 64.238C101.38 63.7348 101.209 63.1823 101.034 62.575C100.319 60.0972 99.6026 56.9483 100.142 54.1006C100.751 50.8849 102.378 48.7636 104.032 46.6994C104.103 46.61 104.175 46.5207 104.247 46.4314C105.834 44.4536 107.414 42.4851 108.312 39.549ZM102.183 66.9474C102.183 66.9475 102.183 66.9469 102.183 66.9457L102.183 66.9474Z" fill="#187800" stroke="#005234"/>
<path d="M141.984 110.177L142.744 110.048L142.552 110.794C141.514 114.85 137.999 118.368 134.501 120.89C132.741 122.159 130.961 123.194 129.452 123.934C127.972 124.661 126.703 125.13 125.959 125.233C124.642 125.49 122.827 125.589 121.155 125.192C119.472 124.793 117.861 123.87 117.132 122.027C116.808 121.207 116.541 120.541 116.294 120.009C116.045 119.472 115.832 119.105 115.626 118.863C115.43 118.632 115.261 118.54 115.093 118.509C114.908 118.476 114.649 118.502 114.252 118.652L113.697 117.857L114.299 117.161L114.507 116.92L114.77 116.995C114.809 116.982 114.875 116.952 114.973 116.891C115.17 116.767 115.425 116.561 115.744 116.275C116.086 115.968 116.461 115.608 116.881 115.205C117.26 114.84 117.677 114.44 118.141 114.01C120.034 112.259 122.527 110.205 125.313 109.409C128.46 108.51 131.086 109.011 133.673 109.562C133.785 109.586 133.897 109.61 134.009 109.634C136.489 110.164 138.957 110.693 141.984 110.177ZM114.75 117C114.75 117 114.751 117 114.752 117L114.75 117Z" fill="#187800" stroke="#005234"/>
<path d="M124.895 91.8944L125.265 91.2193L125.731 91.833C128.261 95.1685 128.83 100.109 128.63 104.417C128.53 106.584 128.233 108.621 127.875 110.264C127.523 111.875 127.101 113.161 126.719 113.806C126.101 114.998 125.05 116.481 123.7 117.544C122.341 118.613 120.616 119.301 118.72 118.726C117.875 118.469 117.188 118.265 116.617 118.127C116.042 117.988 115.622 117.927 115.305 117.937C115.002 117.947 114.825 118.022 114.696 118.135C114.555 118.259 114.415 118.478 114.285 118.882L113.318 118.822L113.147 117.918L113.088 117.605L113.31 117.446C113.324 117.408 113.342 117.337 113.354 117.222C113.38 116.991 113.377 116.663 113.352 116.236C113.324 115.777 113.275 115.26 113.221 114.68C113.171 114.156 113.117 113.58 113.069 112.95C112.874 110.378 112.816 107.149 113.926 104.472C115.179 101.448 117.204 99.7036 119.244 98.0204C119.333 97.9476 119.421 97.8748 119.51 97.802C121.467 96.1899 123.416 94.5854 124.895 91.8944ZM113.301 117.465C113.301 117.465 113.301 117.464 113.302 117.463L113.301 117.465Z" fill="#187800" stroke="#005234"/>
<path d="M94.3168 32.6769L95.0747 32.539L94.892 33.2874C93.899 37.3544 90.4236 40.912 86.9548 43.4732C85.2092 44.7621 83.441 45.8166 81.9402 46.5743C80.4686 47.3173 79.2042 47.8005 78.4623 47.9119C77.1475 48.1839 75.3342 48.3032 73.6576 47.9254C71.9706 47.5454 70.3486 46.6405 69.5996 44.8059C69.2662 43.9892 68.9915 43.3268 68.7385 42.7969C68.4835 42.263 68.2663 41.8981 68.0583 41.659C67.8594 41.4302 67.6898 41.34 67.5205 41.3111C67.3355 41.2797 67.0769 41.3089 66.6815 41.4629L66.1181 40.6743L66.7118 39.9717L66.9175 39.7283L67.1813 39.8C67.2197 39.7872 67.2854 39.7566 67.3826 39.6939C67.5785 39.5677 67.8312 39.3588 68.1468 39.0695C68.4857 38.7588 68.856 38.395 69.2713 37.987C69.647 37.6179 70.0595 37.2127 70.5186 36.7781C72.3916 35.0053 74.8607 32.924 77.6385 32.0965C80.7751 31.162 83.4064 31.6335 85.9993 32.1554C86.1116 32.178 86.2238 32.2007 86.336 32.2234C88.8218 32.7261 91.2959 33.2264 94.3168 32.6769ZM67.1611 39.8056C67.1611 39.8056 67.1617 39.8055 67.1629 39.8053L67.1611 39.8056Z" fill="#187800" stroke="#005234"/>
<path d="M50.4256 17.1429L49.9521 16.5352L49.5899 17.2151C47.6215 20.9099 47.8439 25.8783 48.7252 30.0993C49.1686 32.2233 49.7851 34.1877 50.3997 35.7525C51.0025 37.2869 51.6236 38.4895 52.1028 39.0667C52.9023 40.1455 54.1753 41.4422 55.6775 42.2772C57.1889 43.1174 59.0014 43.5229 60.7821 42.6535C61.5748 42.2664 62.2209 41.9554 62.7625 41.7287C63.3083 41.5003 63.7134 41.3728 64.0278 41.3329C64.3286 41.2948 64.5152 41.3405 64.6607 41.4318C64.8196 41.5315 64.993 41.7256 65.1853 42.1038L66.1309 41.891L66.156 40.9714L66.1648 40.6528L65.9202 40.5307C65.9001 40.4955 65.8715 40.4289 65.8408 40.3174C65.7787 40.0928 65.7294 39.7686 65.6867 39.3426C65.6409 38.8852 65.607 38.3671 65.569 37.7863C65.5347 37.2606 65.4969 36.6836 65.4439 36.0538C65.2278 33.4838 64.7725 30.2868 63.2519 27.8193C61.5349 25.033 59.2582 23.632 56.9766 22.2941C56.8778 22.2362 56.779 22.1784 56.6802 22.1206C54.4913 20.8397 52.3127 19.5649 50.4256 17.1429ZM65.9316 40.5482C65.9316 40.5483 65.9312 40.5478 65.9305 40.5468L65.9316 40.5482Z" fill="#187800" stroke="#005234"/>
<path d="M58.9654 69.4196L58.443 68.8534L58.1387 69.5611C56.4845 73.4068 57.1196 78.3396 58.349 82.4725C58.9677 84.5523 59.7455 86.4586 60.4882 87.9668C61.2165 89.4457 61.9356 90.5925 62.4612 91.1278C63.3477 92.1363 64.7242 93.3226 66.2906 94.0298C67.8666 94.7413 69.7067 94.9946 71.4088 93.9799C72.1665 93.5283 72.7845 93.1645 73.3054 92.8936C73.8303 92.6205 74.2234 92.4598 74.5334 92.3939C74.83 92.3309 75.0197 92.3609 75.1723 92.4397C75.3389 92.5259 75.5279 92.7049 75.751 93.0658L76.6756 92.775L76.6241 91.8565L76.6063 91.5383L76.3525 91.4369C76.3295 91.4036 76.2955 91.3396 76.2555 91.231C76.175 91.0124 76.0989 90.6934 76.0209 90.2724C75.9372 89.8205 75.8603 89.307 75.7741 88.7313C75.6961 88.2104 75.6105 87.6385 75.5053 87.0152C75.0761 84.4722 74.3563 81.3242 72.6357 78.9917C70.6928 76.3579 68.3074 75.1513 65.9224 74.0079C65.8191 73.9584 65.7158 73.909 65.6126 73.8596C63.3247 72.7653 61.0476 71.6762 58.9654 69.4196ZM76.3653 91.4535C76.3653 91.4535 76.3648 91.4531 76.364 91.4522L76.3653 91.4535Z" fill="#187800" stroke="#005234"/>
<path d="M90.4951 136.027L89.7273 136.089L90.097 136.765C92.1064 140.438 96.3826 142.977 100.395 144.556C102.414 145.35 104.395 145.912 106.04 146.257C107.654 146.595 109 146.735 109.746 146.651C111.086 146.574 112.869 146.221 114.391 145.424C115.923 144.621 117.256 143.328 117.506 141.362C117.617 140.487 117.712 139.776 117.819 139.199C117.928 138.617 118.043 138.209 118.182 137.924C118.315 137.651 118.456 137.52 118.612 137.449C118.783 137.371 119.04 137.332 119.462 137.379L119.803 136.472L119.047 135.946L118.786 135.764L118.55 135.901C118.509 135.899 118.438 135.886 118.328 135.851C118.106 135.78 117.808 135.643 117.428 135.445C117.021 135.232 116.569 134.976 116.062 134.69C115.604 134.43 115.101 134.145 114.545 133.844C112.278 132.615 109.355 131.242 106.458 131.159C103.186 131.066 100.766 132.201 98.3958 133.375C98.2932 133.426 98.1906 133.477 98.0881 133.528C95.8164 134.655 93.5554 135.777 90.4951 136.027ZM118.571 135.902C118.571 135.902 118.57 135.902 118.569 135.902L118.571 135.902Z" fill="#187800" stroke="#005234"/>
<path d="M108.681 109.079L108.497 108.331L109.255 108.467C113.376 109.206 117.141 112.455 119.912 115.759C121.307 117.421 122.469 119.121 123.318 120.572C124.15 121.995 124.711 123.227 124.868 123.96C125.221 125.256 125.452 127.058 125.179 128.755C124.904 130.462 124.101 132.137 122.316 132.998C121.522 133.381 120.877 133.697 120.364 133.982C119.847 134.269 119.496 134.509 119.271 134.731C119.055 134.944 118.975 135.119 118.957 135.289C118.937 135.476 118.982 135.732 119.16 136.117L118.408 136.729L117.67 136.179L117.414 135.989L117.469 135.722C117.454 135.684 117.42 135.62 117.351 135.527C117.213 135.339 116.989 135.1 116.681 134.803C116.35 134.484 115.963 134.137 115.531 133.748C115.139 133.395 114.709 133.009 114.247 132.578C112.362 130.818 110.132 128.482 109.134 125.761C108.007 122.688 108.315 120.033 108.675 117.412C108.691 117.299 108.707 117.186 108.722 117.072C109.07 114.56 109.417 112.06 108.681 109.079ZM117.476 135.741C117.476 135.741 117.476 135.741 117.476 135.74L117.476 135.741Z" fill="#187800" stroke="#005234"/>
<path d="M15.5509 90.7306C15.1603 90.34 14.5272 90.34 14.1366 90.7306C13.7461 91.1211 13.7461 91.7542 14.1366 92.1448L15.5509 90.7306ZM33.8438 99.75L33.4666 98.8238L33.8438 99.75ZM52.25 91.4377L51.9652 90.4791L52.25 91.4377ZM78.0897 94.735C78.353 95.2204 78.96 95.4005 79.4455 95.1372C79.931 94.8739 80.1111 94.2669 79.8478 93.7814L78.0897 94.735ZM14.1366 92.1448C17.9801 95.9882 21.123 98.8845 24.2181 100.431C27.4134 102.027 30.5345 102.177 34.2209 100.676L33.4666 98.8238C30.2909 100.117 27.7714 99.9702 25.1119 98.6416C22.3522 97.2628 19.4261 94.6058 15.5509 90.7306L14.1366 92.1448ZM34.2209 100.676C37.9526 99.1567 39.786 97.8726 41.9876 96.6232C44.1715 95.3838 46.8755 94.0774 52.5348 92.3963L51.9652 90.4791C46.1788 92.198 43.332 93.5606 41.0004 94.8837C38.6865 96.1969 37.0396 97.369 33.4666 98.8238L34.2209 100.676ZM52.5348 92.3963C57.5764 90.8986 62.9379 89.4589 67.6032 89.4434C72.2278 89.4279 75.9565 90.8018 78.0897 94.735L79.8478 93.7814C77.231 88.9568 72.6293 87.4266 67.5965 87.4434C62.6044 87.46 56.9815 88.989 51.9652 90.4791L52.5348 92.3963Z" fill="#823E00"/>
<path d="M128.441 35.6962C128.401 35.1454 128.816 34.6669 129.367 34.6275C129.918 34.5882 130.396 35.0029 130.436 35.5538L128.441 35.6962ZM126.467 71.8437L125.693 71.2105L126.467 71.8437ZM100.936 76.5938L101.221 75.6351L100.936 76.5938ZM76.8776 94.1668C76.6142 94.6523 76.0072 94.8324 75.5218 94.5691C75.0363 94.3058 74.8562 93.6988 75.1195 93.2133L76.8776 94.1668ZM130.436 35.5538C131.029 43.8617 131.464 51.539 131.156 57.8667C130.851 64.1376 129.811 69.3356 127.241 72.4768L125.693 71.2105C127.815 68.6167 128.854 64.0179 129.158 57.7694C129.46 51.5778 129.035 44.0133 128.441 35.6962L130.436 35.5538ZM127.241 72.4768C121.538 79.4495 112.293 81.0105 100.651 77.5524L101.221 75.6351C112.471 78.977 120.712 77.3005 125.693 71.2105L127.241 72.4768ZM100.651 77.5524C96.0839 76.1955 91.3798 78.0507 87.1065 81.5142C82.8496 84.9645 79.207 89.872 76.8776 94.1668L75.1195 93.2133C77.5401 88.7504 81.3373 83.6159 85.8472 79.9605C90.3408 76.3184 95.7306 74.0042 101.221 75.6351L100.651 77.5524Z" fill="#823E00"/>
<path d="M5.85436 65.7647L5.49088 65.0855L5.01853 65.6941C2.45166 69.0012 1.82773 73.9354 1.97987 78.2446C2.05644 80.4131 2.3306 82.4536 2.6708 84.1C3.00438 85.7145 3.41247 87.0051 3.78674 87.6552C4.39157 88.854 5.42606 90.348 6.76469 91.4258C8.1116 92.5103 9.82905 93.2175 11.7315 92.6629C12.5783 92.416 13.2679 92.219 13.8401 92.0876C14.4167 91.9551 14.8376 91.8982 15.1542 91.9123C15.4571 91.9258 15.6332 92.0025 15.7611 92.1171C15.9008 92.2423 16.0388 92.463 16.1641 92.8684L17.132 92.8191L17.3129 91.9171L17.3755 91.6047L17.1553 91.4428C17.1414 91.4047 17.1246 91.3343 17.1132 91.2191C17.0902 90.9873 17.0965 90.6594 17.1268 90.2323C17.1592 89.7738 17.2138 89.2575 17.2749 88.6786C17.3302 88.1548 17.391 87.5797 17.4457 86.95C17.6688 84.3807 17.7626 81.1528 16.6828 78.463C15.4636 75.4257 13.4577 73.6587 11.4362 71.953C11.3486 71.8792 11.2611 71.8054 11.1735 71.7317C9.23373 70.0979 7.30309 68.4719 5.85436 65.7647ZM17.1635 91.462C17.1635 91.4621 17.1632 91.4615 17.1626 91.4604L17.1635 91.462Z" fill="#187800" stroke="#005234"/>
<path d="M35.3391 71.8312L35.9361 71.3443L36.1377 72.0878C37.2333 76.1283 35.9093 80.9223 34.1097 84.8407C33.2041 86.8125 32.1654 88.5902 31.2175 89.9787C30.2881 91.3402 29.4145 92.3741 28.8188 92.83C27.799 93.7035 26.2691 94.684 24.6186 95.1633C22.958 95.6456 21.1007 95.637 19.5585 94.3927C18.872 93.8387 18.3114 93.3915 17.8339 93.0498C17.3527 92.7055 16.9863 92.491 16.6886 92.3821C16.4039 92.2779 16.2118 92.2809 16.0497 92.3374C15.8725 92.3992 15.6602 92.5498 15.3885 92.8757L14.5141 92.4575L14.6945 91.5554L14.757 91.2429L15.0225 91.1783C15.05 91.1485 15.0927 91.09 15.1476 90.9881C15.2581 90.783 15.3784 90.4779 15.5149 90.0722C15.6615 89.6365 15.81 89.139 15.9765 88.5812C16.1271 88.0764 16.2925 87.5223 16.4845 86.9201C17.2678 84.463 18.424 81.4478 20.4562 79.3811C22.751 77.0475 25.2826 76.189 27.8049 75.3932C27.9142 75.3587 28.0234 75.3244 28.1326 75.29C30.5518 74.5291 32.9597 73.7718 35.3391 71.8312ZM15.0076 91.1929C15.0076 91.1929 15.0081 91.1926 15.009 91.1918L15.0076 91.1929Z" fill="#187800" stroke="#005234"/>
<path d="M134.237 7.37304L134.439 6.62965L135.035 7.11696C138.278 9.76513 139.991 14.4342 140.808 18.668C141.219 20.7985 141.409 22.8486 141.446 24.5294C141.483 26.1775 141.374 27.5267 141.155 28.2442C140.834 29.548 140.16 31.2357 139.097 32.586C138.027 33.9446 136.512 35.0186 134.534 34.9041C133.653 34.8532 132.937 34.8157 132.35 34.8158C131.758 34.8158 131.335 34.8546 131.03 34.9393C130.738 35.0203 130.583 35.1345 130.484 35.2748C130.376 35.4282 130.291 35.6742 130.26 36.0973L129.305 36.2661L128.927 35.4275L128.796 35.137L128.974 34.93C128.979 34.8897 128.98 34.8173 128.965 34.7026C128.936 34.4714 128.856 34.1533 128.731 33.7439C128.597 33.3043 128.428 32.8133 128.239 32.2628C128.067 31.7647 127.879 31.2178 127.685 30.6164C126.892 28.1623 126.078 25.0374 126.528 22.1741C127.036 18.9409 128.595 16.7695 130.183 14.6544C130.252 14.5628 130.32 14.4713 130.389 14.3798C131.914 12.3531 133.431 10.3359 134.237 7.37304ZM128.971 34.9505C128.971 34.9506 128.971 34.95 128.971 34.9488L128.971 34.9505Z" fill="#187800" stroke="#005234"/>
<path d="M110.592 12.4341L110.042 11.8955L109.774 12.6179C108.319 16.5434 109.207 21.4371 110.646 25.5015C111.371 27.5469 112.245 29.4107 113.064 30.8789C113.868 32.3185 114.645 33.4268 115.197 33.9345C116.134 34.8962 117.57 36.0104 119.17 36.6362C120.781 37.266 122.631 37.4245 124.279 36.3239C125.013 35.834 125.611 35.4391 126.118 35.1417C126.628 34.8421 127.012 34.6614 127.318 34.5797C127.611 34.5016 127.802 34.5218 127.959 34.5927C128.13 34.6702 128.327 34.8393 128.569 35.1883L129.477 34.8504L129.379 33.9358L129.345 33.6189L129.086 33.5307C129.061 33.4986 129.024 33.4364 128.978 33.3301C128.887 33.1158 128.794 32.8012 128.695 32.3848C128.588 31.9377 128.485 31.4288 128.369 30.8583C128.265 30.342 128.15 29.7753 128.013 29.1583C127.454 26.6406 126.574 23.5336 124.736 21.2925C122.66 18.7619 120.216 17.6791 117.776 16.6596C117.67 16.6154 117.564 16.5714 117.459 16.5274C115.118 15.5519 112.788 14.581 110.592 12.4341ZM129.099 33.5466C129.099 33.5466 129.099 33.5463 129.098 33.5454L129.099 33.5466Z" fill="#187800" stroke="#005234"/>
<path d="M122.189 2.50051L122.096 1.73577L122.832 1.96225C126.834 3.19299 130.181 6.87189 132.533 10.4855C133.717 12.304 134.666 14.1313 135.334 15.6741C135.989 17.1869 136.396 18.4775 136.464 19.2247C136.658 20.5533 136.67 22.3704 136.194 24.0219C135.716 25.6835 134.717 27.2494 132.841 27.8891C132.006 28.1739 131.329 28.4091 130.785 28.6304C130.237 28.8535 129.86 29.0488 129.609 29.2423C129.369 29.4275 129.269 29.5915 129.23 29.7588C129.188 29.9416 129.202 30.2015 129.332 30.6052L128.512 31.1212L127.845 30.4871L127.615 30.2675L127.702 30.0084C127.691 29.9693 127.665 29.902 127.608 29.8012C127.493 29.5982 127.3 29.3336 127.029 29.0015C126.739 28.645 126.398 28.2538 126.015 27.8153C125.669 27.4184 125.288 26.9828 124.882 26.4989C123.222 24.5247 121.29 21.9373 120.627 19.1157C119.879 15.9294 120.505 13.3305 121.179 10.7728C121.208 10.662 121.237 10.5514 121.266 10.4407C121.915 7.98882 122.56 5.54851 122.189 2.50051ZM127.706 30.0289C127.706 30.0289 127.706 30.0283 127.706 30.0271L127.706 30.0289Z" fill="#187800" stroke="#005234"/>
<path d="M337.316 18.3578L337.84 17.793L338.143 18.5015C339.787 22.3515 339.139 27.2826 337.899 31.4123C337.275 33.4905 336.492 35.3948 335.746 36.9011C335.014 38.3781 334.291 39.523 333.765 40.057C332.875 41.0632 331.496 42.2459 329.928 42.949C328.35 43.6565 326.509 43.905 324.81 42.886C324.053 42.4324 323.436 42.067 322.916 41.7947C322.392 41.5203 321.999 41.3586 321.689 41.2919C321.393 41.2281 321.203 41.2576 321.05 41.3361C320.883 41.4218 320.694 41.6003 320.47 41.9607L319.546 41.6675L319.6 40.7491L319.618 40.4309L319.873 40.3302C319.896 40.2969 319.93 40.2331 319.97 40.1246C320.051 39.9061 320.128 39.5874 320.207 39.1666C320.292 38.7148 320.37 38.2015 320.458 37.6261C320.537 37.1054 320.624 36.5337 320.731 35.9107C321.167 33.3688 321.895 30.2226 323.621 27.8946C325.571 25.2659 327.96 24.0654 330.348 22.9282C330.451 22.8789 330.554 22.8298 330.658 22.7807C332.948 21.6923 335.228 20.6091 337.316 18.3578ZM319.86 40.3468C319.86 40.3468 319.86 40.3464 319.861 40.3455L319.86 40.3468Z" fill="#187800" stroke="#005234"/>
<path d="M233.165 63.8627L233.463 63.1519L232.692 63.17C228.507 63.268 224.287 65.8999 221.042 68.7391C219.409 70.1678 218 71.6689 216.938 72.9723C215.897 74.2505 215.154 75.3818 214.886 76.0826C214.338 77.3086 213.833 79.0541 213.843 80.7727C213.852 82.5019 214.388 84.2802 216.02 85.4051C216.746 85.9059 217.334 86.3162 217.797 86.6769C218.264 87.0404 218.574 87.3307 218.763 87.5852C218.944 87.8285 218.996 88.0135 218.988 88.1851C218.979 88.3725 218.895 88.6188 218.659 88.972L219.309 89.6914L220.122 89.2621L220.404 89.1133L220.391 88.8403C220.412 88.8055 220.456 88.748 220.538 88.6664C220.703 88.5022 220.961 88.3001 221.311 88.0539C221.687 87.7895 222.122 87.5057 222.61 87.1876C223.051 86.8997 223.535 86.5837 224.058 86.2284C226.191 84.779 228.753 82.8134 230.157 80.2777C231.742 77.4143 231.846 74.7431 231.892 72.0985C231.894 71.984 231.896 71.8696 231.897 71.7551C231.939 69.2193 231.981 66.6955 233.165 63.8627ZM220.381 88.8588C220.381 88.8589 220.381 88.8583 220.382 88.8572L220.381 88.8588Z" fill="#187800" stroke="#005234"/>
<path d="M223.854 60.7368L223.885 59.9671L223.169 60.2524C219.28 61.803 216.242 65.7407 214.19 69.5329C213.157 71.4413 212.36 73.3393 211.819 74.9311C211.288 76.492 210.986 77.8114 210.98 78.5616C210.894 79.9015 211.028 81.7137 211.636 83.3212C212.248 84.9387 213.37 86.4186 215.292 86.9043C216.147 87.1206 216.841 87.3002 217.401 87.4768C217.965 87.6547 218.357 87.8189 218.623 87.9915C218.877 88.1566 218.99 88.312 219.042 88.4756C219.099 88.6543 219.106 88.9145 219.009 89.3275L219.868 89.7754L220.481 89.0895L220.694 88.8518L220.586 88.6007C220.593 88.5608 220.614 88.4916 220.663 88.3865C220.76 88.175 220.932 87.8955 221.175 87.5427C221.435 87.1638 221.744 86.7463 222.09 86.2782C222.403 85.8546 222.746 85.3896 223.113 84.8744C224.607 82.7724 226.323 80.0371 226.755 77.171C227.243 73.9347 226.409 71.395 225.53 68.9002C225.492 68.7921 225.454 68.6842 225.416 68.5763C224.572 66.1849 223.731 63.8048 223.854 60.7368ZM220.583 88.6214C220.583 88.6214 220.583 88.6208 220.583 88.6196L220.583 88.6214Z" fill="#187800" stroke="#005234"/>
<path d="M311.565 49.1254L311.906 48.4345L312.398 49.0271C315.073 52.2475 315.86 57.1583 315.851 61.4702C315.846 63.64 315.64 65.6885 315.354 67.3452C315.074 68.9698 314.709 70.2732 314.356 70.9354C313.792 72.1536 312.807 73.681 311.505 74.8025C310.195 75.931 308.502 76.6947 306.582 76.2034C305.727 75.9846 305.032 75.8107 304.455 75.6982C303.875 75.5849 303.452 75.5419 303.136 75.5665C302.834 75.59 302.66 75.6725 302.536 75.7913C302.401 75.9211 302.27 76.1462 302.158 76.5556L301.189 76.5383L300.979 75.6428L300.906 75.3326L301.121 75.1635C301.133 75.125 301.148 75.0541 301.155 74.9386C301.171 74.7061 301.153 74.3786 301.109 73.9528C301.061 73.4956 300.99 72.9814 300.91 72.4048C300.837 71.8831 300.757 71.3104 300.682 70.6828C300.374 68.1223 300.173 64.8993 301.163 62.1752C302.281 59.0992 304.227 57.2668 306.191 55.4951C306.276 55.4184 306.361 55.3418 306.446 55.2652C308.331 53.5681 310.207 51.8791 311.565 49.1254ZM301.113 75.183C301.113 75.1831 301.113 75.1825 301.114 75.1814L301.113 75.183Z" fill="#187800" stroke="#005234"/>
<path d="M320.039 54.0935L320.599 53.5648L320.854 54.2918C322.239 58.2425 321.265 63.1197 319.753 67.1579C318.992 69.1901 318.085 71.0381 317.24 72.4915C316.411 73.9166 315.615 75.011 315.053 75.5088C314.099 76.4537 312.644 77.5422 311.033 78.1396C309.411 78.7407 307.558 78.8664 305.93 77.7367C305.206 77.2339 304.614 76.8283 304.113 76.5221C303.608 76.2135 303.227 76.026 302.923 75.9389C302.631 75.8556 302.44 75.8724 302.282 75.9405C302.11 76.015 301.909 76.1805 301.662 76.5252L300.759 76.1712L300.874 75.2585L300.914 74.9423L301.174 74.8587C301.199 74.827 301.237 74.7655 301.285 74.66C301.38 74.4474 301.478 74.1344 301.585 73.7198C301.7 73.2747 301.812 72.7677 301.938 72.1994C302.051 71.6851 302.176 71.1205 302.324 70.5059C302.928 67.9986 303.863 64.9077 305.741 62.6996C307.861 60.2062 310.324 59.167 312.782 58.1909C312.888 58.1486 312.995 58.1064 313.101 58.0643C315.459 57.1305 317.806 56.2011 320.039 54.0935ZM301.16 74.8743C301.16 74.8743 301.16 74.874 301.161 74.8731L301.16 74.8743Z" fill="#187800" stroke="#005234"/>
<path d="M36.3756 6.34864L36.6477 5.6279L35.8786 5.67292C31.6993 5.91755 27.5742 8.69578 24.4304 11.6469C22.8484 13.1319 21.4928 14.6815 20.4773 16.0214C19.4815 17.3352 18.7786 18.4919 18.5355 19.2016C18.0312 20.4461 17.5875 22.2082 17.6573 23.9254C17.7275 25.6533 18.3256 27.4117 19.9954 28.4787C20.7388 28.9537 21.3409 29.3431 21.8165 29.6874C22.2959 30.0343 22.6157 30.3136 22.8135 30.5613C23.0027 30.7982 23.0609 30.9812 23.0588 31.1529C23.0565 31.3405 22.9812 31.5897 22.7585 31.9509L23.4328 32.6471L24.2308 32.1895L24.5073 32.031L24.4842 31.7586C24.5037 31.7231 24.5456 31.6641 24.6248 31.5797C24.7842 31.4098 25.0352 31.1987 25.3766 30.9404C25.7432 30.663 26.1678 30.3642 26.6438 30.0291C27.0745 29.726 27.5474 29.3932 28.0575 29.0198C30.1385 27.4965 32.6302 25.4424 33.9443 22.859C35.4282 19.9418 35.438 17.2686 35.3914 14.6241C35.3893 14.5096 35.3872 14.3951 35.3851 14.2807C35.3381 11.745 35.2913 9.22126 36.3756 6.34864ZM24.4751 31.7775C24.4751 31.7775 24.4752 31.7769 24.4757 31.7758L24.4751 31.7775Z" fill="#187800" stroke="#005234"/>
<path d="M8.58868 7.65106L8.10052 7.05509L7.75499 7.74363C5.87725 11.4853 6.22078 16.4469 7.20466 20.6451C7.69977 22.7577 8.36394 24.7064 9.01657 26.2558C9.65653 27.775 10.3068 28.9621 10.7999 29.5275C11.6255 30.5864 12.9298 31.8517 14.4518 32.6499C15.9833 33.453 17.8052 33.8142 19.5641 32.9016C20.3471 32.4954 20.9855 32.1686 21.5214 31.9288C22.0615 31.6871 22.4633 31.5498 22.7767 31.5023C23.0764 31.4569 23.2641 31.498 23.4117 31.5857C23.573 31.6815 23.7512 31.8713 23.9526 32.2448L24.8927 32.0089L24.8954 31.089L24.8964 30.7703L24.649 30.6541C24.628 30.6195 24.5978 30.5536 24.5643 30.4429C24.4968 30.2199 24.4396 29.897 24.3865 29.4721C24.3296 29.016 24.2831 28.4989 24.2309 27.9191C24.1838 27.3945 24.132 26.8186 24.0637 26.1902C23.7849 23.6263 23.2518 20.4413 21.6715 18.0116C19.8871 15.268 17.5769 13.923 15.2633 12.6411C15.1632 12.5856 15.063 12.5302 14.9628 12.4748C12.7433 11.2477 10.5343 10.0264 8.58868 7.65106ZM24.6607 30.6714C24.6607 30.6714 24.6603 30.671 24.6596 30.67L24.6607 30.6714Z" fill="#187800" stroke="#005234"/>
<path d="M291.73 41.4159C291.811 40.8696 292.319 40.4924 292.866 40.5733C293.412 40.6542 293.789 41.1627 293.708 41.7091L291.73 41.4159ZM298.063 67.3536L297.083 67.1575L298.063 67.3536ZM282.032 71.5099L282.319 70.552L282.032 71.5099ZM246.399 96.9982C245.951 97.3215 245.326 97.2207 245.003 96.773C244.679 96.3253 244.78 95.7002 245.228 95.3768L246.399 96.9982ZM293.708 41.7091C292.555 49.4928 294.136 54.2544 295.847 57.8096C296.282 58.7134 296.726 59.5403 297.151 60.3422C297.572 61.1352 297.979 61.9115 298.312 62.6729C298.982 64.2066 299.398 65.7808 299.044 67.5498L297.083 67.1575C297.323 65.9577 297.071 64.8275 296.479 63.4737C296.181 62.7913 295.808 62.078 295.385 61.2796C294.966 60.4902 294.501 59.6239 294.045 58.6769C292.193 54.8286 290.508 49.6635 291.73 41.4159L293.708 41.7091ZM299.044 67.5498C298.665 69.444 297.739 70.8626 296.439 71.8554C295.158 72.8327 293.571 73.3548 291.913 73.5848C288.611 74.0426 284.779 73.3769 281.745 72.4678L282.319 70.552C285.223 71.4223 288.741 72.0055 291.638 71.6038C293.078 71.404 294.303 70.9693 295.225 70.2655C296.127 69.5771 296.796 68.5902 297.083 67.1575L299.044 67.5498ZM281.745 72.4678C276.12 70.7819 271.862 70.997 268.464 72.2879C265.052 73.5845 262.386 76.012 260.032 78.9744C257.659 81.9603 255.691 85.3673 253.564 88.6439C251.473 91.8666 249.235 94.9498 246.399 96.9982L245.228 95.3768C247.735 93.5659 249.802 90.7673 251.887 87.5552C253.936 84.397 256.014 80.816 258.466 77.7301C260.937 74.6206 263.875 71.8923 267.754 70.4184C271.648 68.9388 276.369 68.7686 282.319 70.552L281.745 72.4678Z" fill="#823E00"/>
<path d="M335.355 81.8241C335.746 81.4336 336.379 81.4336 336.77 81.8241C337.16 82.2147 337.16 82.8478 336.77 83.2384L335.355 81.8241ZM317.657 94.4062L317.363 93.4505L317.657 94.4062ZM238.308 125.873C237.981 126.318 237.355 126.414 236.91 126.088C236.464 125.761 236.368 125.135 236.695 124.69L238.308 125.873ZM336.77 83.2384C333.194 86.8137 330.463 89.2491 327.626 91.089C324.777 92.9375 321.863 94.1584 317.951 95.362L317.363 93.4505C321.169 92.2791 323.896 91.125 326.538 89.411C329.194 87.6884 331.806 85.3738 335.355 81.8241L336.77 83.2384ZM317.951 95.362C307.985 98.4285 300.217 98.9688 292.72 98.9688V96.9688C300.088 96.9688 307.645 96.4406 317.363 93.4505L317.951 95.362ZM292.72 98.9688C280.785 98.9688 268.788 103.487 258.929 109.152C249.058 114.824 241.464 121.568 238.308 125.873L236.695 124.69C240.069 120.088 247.913 113.176 257.932 107.418C267.964 101.654 280.31 96.9688 292.72 96.9688V98.9688Z" fill="#823E00"/>
<path d="M227.288 7.70132L226.702 7.20166L226.484 7.94066C225.302 11.9566 226.522 16.778 228.237 20.7343C229.1 22.7252 230.1 24.5248 231.018 25.9334C231.917 27.3147 232.768 28.3672 233.354 28.8359C234.355 29.7311 235.863 30.7443 237.503 31.2591C239.153 31.7771 241.01 31.8086 242.579 30.5977C243.277 30.0587 243.847 29.6237 244.332 29.2924C244.82 28.9585 245.191 28.7519 245.491 28.6495C245.778 28.5515 245.97 28.5585 246.131 28.6186C246.307 28.6842 246.516 28.8393 246.78 29.171L247.664 28.7717L247.503 27.8659L247.447 27.5521L247.183 27.4819C247.156 27.4515 247.115 27.392 247.062 27.289C246.956 27.0816 246.842 26.774 246.714 26.3654C246.577 25.9266 246.44 25.426 246.285 24.8648C246.145 24.3569 245.992 23.7994 245.813 23.1931C245.083 20.7197 243.992 17.6803 242.005 15.5703C239.761 13.1877 237.248 12.2749 234.744 11.4249C234.635 11.3881 234.527 11.3514 234.418 11.3147C232.016 10.5018 229.625 9.69282 227.288 7.70132ZM247.198 27.4968C247.198 27.4968 247.197 27.4964 247.196 27.4956L247.198 27.4968Z" fill="#187800" stroke="#005234"/>
<path d="M267.805 10.0763L268.392 9.57666L268.609 10.3157C269.792 14.3316 268.571 19.153 266.856 23.1093C265.994 25.1002 264.993 26.8998 264.076 28.3084C263.176 29.6897 262.325 30.7422 261.739 31.2109C260.738 32.1061 259.23 33.1193 257.59 33.6341C255.94 34.1521 254.083 34.1836 252.514 32.9727C251.816 32.4337 251.246 31.9987 250.761 31.6674C250.273 31.3335 249.902 31.1269 249.602 31.0245C249.315 30.9265 249.123 30.9335 248.962 30.9936C248.786 31.0592 248.577 31.2143 248.313 31.546L247.43 31.1467L247.59 30.2409L247.646 29.9271L247.91 29.8569C247.937 29.8265 247.979 29.767 248.031 29.664C248.137 29.4566 248.251 29.149 248.379 28.7404C248.516 28.3016 248.654 27.801 248.808 27.2398C248.948 26.7319 249.101 26.1744 249.28 25.5681C250.01 23.0947 251.101 20.0553 253.089 17.9453C255.332 15.5627 257.845 14.6499 260.35 13.7999C260.458 13.7631 260.566 13.7264 260.675 13.6897C263.077 12.8768 265.468 12.0678 267.805 10.0763ZM247.896 29.8718C247.896 29.8718 247.896 29.8714 247.897 29.8706L247.896 29.8718Z" fill="#187800" stroke="#005234"/>
<path d="M248.207 2.63195L248.286 1.86559L248.954 2.24938C252.584 4.33499 255.034 8.66324 256.528 12.7078C257.28 14.7432 257.801 16.7351 258.111 18.3874C258.415 20.0077 258.527 21.3566 258.428 22.1001C258.323 23.4388 257.933 25.2136 257.104 26.7188C256.269 28.2333 254.948 29.5394 252.978 29.7482C252.101 29.8412 251.388 29.9207 250.809 30.0162C250.225 30.1125 249.814 30.2195 249.526 30.3527C249.251 30.4802 249.117 30.618 249.043 30.7725C248.961 30.9414 248.917 31.198 248.955 31.6206L248.041 31.9423L247.531 31.1764L247.354 30.9111L247.497 30.6778C247.495 30.6373 247.484 30.5657 247.451 30.4549C247.384 30.2316 247.254 29.9307 247.064 29.5471C246.86 29.1352 246.613 28.6781 246.337 28.1658C246.087 27.7021 245.813 27.1932 245.523 26.6313C244.342 24.3388 243.03 21.3881 243.008 18.4897C242.983 15.2169 244.169 12.8209 245.392 10.4756C245.445 10.3741 245.498 10.2726 245.551 10.1712C246.725 7.92348 247.894 5.68641 248.207 2.63195ZM247.496 30.6987C247.496 30.6987 247.497 30.6981 247.497 30.6969L247.496 30.6987Z" fill="#187800" stroke="#005234"/>
<path d="M272.413 18.3888L271.827 17.8892L271.609 18.6282C270.427 22.6441 271.647 27.4655 273.362 31.4218C274.225 33.4127 275.225 35.2123 276.143 36.6209C277.042 38.0022 277.893 39.0547 278.479 39.5234C279.48 40.4186 280.988 41.4318 282.628 41.9466C284.278 42.4646 286.135 42.4961 287.704 41.2852C288.402 40.7462 288.972 40.3112 289.457 39.9799C289.945 39.646 290.316 39.4394 290.616 39.337C290.903 39.239 291.095 39.246 291.256 39.3061C291.432 39.3717 291.641 39.5268 291.905 39.8585L292.789 39.4592L292.628 38.5534L292.572 38.2396L292.308 38.1694C292.281 38.139 292.24 38.0795 292.187 37.9765C292.081 37.7691 291.967 37.4615 291.839 37.0529C291.702 36.6141 291.565 36.1135 291.41 35.5523C291.27 35.0444 291.117 34.4869 290.938 33.8806C290.208 31.4072 289.117 28.3678 287.13 26.2578C284.886 23.8752 282.373 22.9624 279.869 22.1124C279.76 22.0756 279.652 22.0389 279.543 22.0022C277.141 21.1893 274.75 20.3803 272.413 18.3888ZM292.323 38.1843C292.323 38.1843 292.322 38.1839 292.321 38.1831L292.323 38.1843Z" fill="#187800" stroke="#005234"/>
<path d="M312.93 20.7638L313.516 20.2642L313.734 21.0032C314.916 25.0191 313.696 29.8405 311.981 33.7968C311.118 35.7877 310.118 37.5873 309.2 38.9959C308.3 40.3772 307.449 41.4297 306.864 41.8984C305.863 42.7936 304.354 43.8068 302.715 44.3216C301.065 44.8396 299.208 44.8711 297.639 43.6602C296.941 43.1212 296.371 42.6862 295.886 42.3549C295.397 42.021 295.026 41.8144 294.726 41.712C294.44 41.614 294.248 41.621 294.087 41.6811C293.911 41.7467 293.702 41.9018 293.437 42.2335L292.554 41.8342L292.715 40.9284L292.771 40.6146L293.035 40.5444C293.062 40.514 293.103 40.4545 293.156 40.3515C293.262 40.1441 293.376 39.8365 293.503 39.4279C293.64 38.9891 293.778 38.4885 293.933 37.9273C294.072 37.4194 294.226 36.8619 294.405 36.2556C295.135 33.7822 296.226 30.7428 298.213 28.6328C300.457 26.2502 302.969 25.3374 305.474 24.4874C305.583 24.4506 305.691 24.4139 305.799 24.3772C308.202 23.5643 310.593 22.7553 312.93 20.7638ZM293.02 40.5593C293.02 40.5593 293.021 40.5589 293.022 40.5581L293.02 40.5593Z" fill="#187800" stroke="#005234"/>
<path d="M293.332 13.3194L293.411 12.5531L294.079 12.9369C297.709 15.0225 300.159 19.3507 301.653 23.3953C302.405 25.4307 302.926 27.4226 303.236 29.0749C303.54 30.6952 303.652 32.0441 303.553 32.7876C303.448 34.1263 303.058 35.9011 302.229 37.4063C301.394 38.9208 300.073 40.2269 298.103 40.4357C297.226 40.5287 296.513 40.6082 295.934 40.7037C295.35 40.8 294.939 40.907 294.651 41.0402C294.376 41.1677 294.242 41.3055 294.168 41.46C294.086 41.6289 294.042 41.8855 294.08 42.3081L293.166 42.6298L292.656 41.8639L292.479 41.5986L292.622 41.3653C292.62 41.3248 292.609 41.2532 292.576 41.1424C292.509 40.9191 292.379 40.6182 292.189 40.2346C291.985 39.8227 291.738 39.3656 291.462 38.8533C291.212 38.3896 290.938 37.8807 290.648 37.3188C289.467 35.0263 288.155 32.0756 288.133 29.1772C288.108 25.9044 289.294 23.5084 290.517 21.1631C290.57 21.0616 290.623 20.9601 290.676 20.8587C291.85 18.611 293.019 16.3739 293.332 13.3194ZM292.621 41.3862C292.621 41.3862 292.622 41.3856 292.622 41.3844L292.621 41.3862Z" fill="#187800" stroke="#005234"/>
<path d="M353.179 53.9495L353.701 53.3833L354.006 54.0909C355.66 57.9363 355.026 62.8692 353.798 67.0024C353.179 69.0823 352.402 70.9887 351.66 72.4971C350.931 73.9761 350.213 75.123 349.687 75.6585C348.801 76.6671 347.425 77.8537 345.858 78.5612C344.282 79.273 342.442 79.5266 340.74 78.5123C339.982 78.0608 339.364 77.6972 338.843 77.4263C338.318 77.1534 337.925 76.9927 337.615 76.9269C337.319 76.8639 337.129 76.894 336.976 76.9729C336.81 77.059 336.621 77.238 336.398 77.599L335.473 77.3084L335.524 76.3899L335.542 76.0717L335.796 75.9703C335.819 75.9369 335.853 75.8729 335.893 75.7644C335.973 75.5457 336.049 75.2267 336.127 74.8057C336.211 74.3537 336.288 73.8402 336.374 73.2645C336.452 72.7436 336.537 72.1717 336.642 71.5484C337.071 69.0053 337.79 65.8571 339.51 63.5243C341.453 60.8902 343.838 59.683 346.223 58.5392C346.326 58.4897 346.429 58.4402 346.532 58.3908C348.82 57.2961 351.097 56.2066 353.179 53.9495ZM335.783 75.9868C335.783 75.9869 335.784 75.9865 335.784 75.9855L335.783 75.9868Z" fill="#187800" stroke="#005234"/>
<path d="M338.165 54.9509L338.339 54.2005L338.953 54.6652C342.292 57.1905 344.179 61.7923 345.153 65.9926C345.644 68.1064 345.91 70.1479 346.01 71.8261C346.108 73.4717 346.05 74.8241 345.858 75.5492C345.585 76.8641 344.975 78.5758 343.963 79.9648C342.945 81.3625 341.471 82.4922 339.49 82.4518C338.608 82.4337 337.891 82.423 337.304 82.445C336.713 82.4671 336.292 82.5217 335.99 82.6177C335.701 82.7096 335.55 82.8294 335.457 82.9734C335.355 83.1307 335.279 83.3797 335.263 83.8037L334.316 84.008L333.906 83.1841L333.765 82.8987L333.935 82.6851C333.939 82.6447 333.937 82.5724 333.918 82.4582C333.88 82.2284 333.788 81.9134 333.648 81.509C333.497 81.0747 333.31 80.5903 333.1 80.0473C332.911 79.5559 332.702 79.0165 332.486 78.4227C331.602 75.9999 330.671 72.9077 331.014 70.0296C331.401 66.7796 332.878 64.5515 334.386 62.3786C334.451 62.2845 334.516 62.1905 334.582 62.0965C336.029 60.0143 337.47 57.9419 338.165 54.9509ZM333.932 82.7058C333.932 82.7059 333.932 82.7053 333.933 82.7041L333.932 82.7058Z" fill="#187800" stroke="#005234"/>
<path d="M245.848 67.962L245.746 67.1985L245.09 67.603C241.527 69.8013 239.214 74.2042 237.847 78.2936C237.159 80.3515 236.701 82.3587 236.443 84.02C236.19 85.6489 236.12 87.0007 236.243 87.7408C236.389 89.0755 236.835 90.8372 237.711 92.3157C238.593 93.8033 239.953 95.0674 241.93 95.2144C242.809 95.2798 243.524 95.337 244.106 95.4143C244.693 95.4922 245.107 95.5864 245.398 95.7105C245.677 95.8293 245.815 95.9628 245.895 96.115C245.982 96.2812 246.034 96.5362 246.009 96.9599L246.933 97.2528L247.418 96.4713L247.587 96.2006L247.437 95.9719C247.437 95.9313 247.446 95.8594 247.476 95.7476C247.536 95.5224 247.656 95.2175 247.834 94.8281C248.025 94.41 248.257 93.9455 248.517 93.4247C248.753 92.9535 249.011 92.4362 249.283 91.8655C250.392 89.5372 251.611 86.5468 251.542 83.6492C251.464 80.3772 250.204 78.0194 248.908 75.7136C248.852 75.6138 248.796 75.514 248.74 75.4143C247.495 73.2045 246.257 71.0052 245.848 67.962ZM247.438 95.9927C247.438 95.9928 247.438 95.9922 247.438 95.9909L247.438 95.9927Z" fill="#187800" stroke="#005234"/>
<path d="M215.765 124.98C215.931 124.453 216.493 124.161 217.02 124.328C217.547 124.494 217.839 125.056 217.672 125.582L215.765 124.98ZM216.719 162.094L217.583 162.598L216.719 162.094ZM192.375 176.938L192.58 175.959L192.58 175.959L192.375 176.938ZM155.66 212.098C155.261 212.479 154.628 212.465 154.246 212.066C153.864 211.667 153.878 211.034 154.278 210.652L155.66 212.098ZM217.672 125.582C216.833 128.241 216.644 131.372 216.799 134.745C216.954 138.113 217.448 141.647 217.932 145.108C218.412 148.543 218.885 151.924 218.971 154.894C219.055 157.839 218.769 160.564 217.583 162.598L215.855 161.59C216.747 160.061 217.054 157.813 216.972 154.951C216.89 152.114 216.436 148.851 215.951 145.385C215.47 141.943 214.962 138.315 214.801 134.837C214.641 131.362 214.823 127.962 215.765 124.98L217.672 125.582ZM217.583 162.598C215.353 166.42 213.464 169.46 211.691 171.819C209.916 174.178 208.22 175.905 206.357 177.059C202.569 179.405 198.36 179.211 192.17 177.916L192.58 175.959C198.721 177.243 202.23 177.262 205.304 175.359C206.872 174.388 208.393 172.875 210.092 170.616C211.791 168.357 213.631 165.402 215.855 161.59L217.583 162.598ZM192.17 177.916C189.865 177.434 187.318 178.301 184.46 180.339C181.613 182.369 178.62 185.445 175.485 189.063C172.351 192.68 169.144 196.758 165.824 200.799C162.519 204.822 159.12 208.788 155.66 212.098L154.278 210.652C157.646 207.43 160.982 203.543 164.278 199.53C167.559 195.536 170.818 191.395 173.974 187.753C177.13 184.111 180.25 180.885 183.299 178.711C186.336 176.546 189.467 175.308 192.58 175.959L192.17 177.916Z" fill="#823E00"/>
<path d="M226.065 97.8129L226.406 97.122L226.898 97.7146C229.573 100.935 230.36 105.846 230.351 110.158C230.346 112.328 230.14 114.376 229.854 116.033C229.574 117.657 229.209 118.961 228.856 119.623C228.292 120.841 227.307 122.368 226.005 123.49C224.695 124.619 223.002 125.382 221.082 124.891C220.227 124.672 219.532 124.498 218.955 124.386C218.375 124.272 217.952 124.229 217.636 124.254C217.334 124.278 217.16 124.36 217.036 124.479C216.901 124.609 216.77 124.834 216.658 125.243L215.689 125.226L215.479 124.33L215.406 124.02L215.621 123.851C215.633 123.813 215.648 123.742 215.655 123.626C215.671 123.394 215.653 123.066 215.609 122.64C215.561 122.183 215.49 121.669 215.41 121.092C215.337 120.571 215.257 119.998 215.182 119.37C214.874 116.81 214.673 113.587 215.663 110.863C216.781 107.787 218.727 105.954 220.691 104.183C220.776 104.106 220.861 104.029 220.946 103.953C222.831 102.256 224.707 100.567 226.065 97.8129ZM215.613 123.871C215.613 123.871 215.613 123.87 215.614 123.869L215.613 123.871Z" fill="#187800" stroke="#005234"/>
<path d="M208.596 97.7824L208.303 97.0701L207.772 97.6283C204.887 100.662 203.772 105.509 203.492 109.812C203.351 111.977 203.419 114.034 203.593 115.707C203.763 117.346 204.04 118.671 204.347 119.356C204.829 120.609 205.708 122.199 206.932 123.406C208.164 124.62 209.802 125.495 211.75 125.134C212.618 124.973 213.323 124.846 213.906 124.773C214.493 124.699 214.917 124.684 215.231 124.73C215.531 124.774 215.699 124.867 215.814 124.994C215.941 125.133 216.056 125.366 216.14 125.782L217.108 125.83L217.378 124.951L217.472 124.646L217.269 124.463C217.259 124.424 217.249 124.352 217.249 124.236C217.25 124.003 217.289 123.678 217.362 123.256C217.44 122.803 217.546 122.295 217.665 121.725C217.772 121.209 217.89 120.643 218.008 120.022C218.487 117.488 218.904 114.286 218.099 111.501C217.19 108.357 215.371 106.398 213.53 104.499C213.451 104.416 213.371 104.334 213.291 104.252C211.525 102.432 209.767 100.621 208.596 97.7824ZM217.275 124.483C217.275 124.483 217.275 124.483 217.275 124.481L217.275 124.483Z" fill="#187800" stroke="#005234"/>
<path d="M7.08461 36.1883L6.52546 35.6584L6.26915 36.3849C4.87625 40.3328 5.84025 45.2119 7.34364 49.2532C8.10018 51.2869 9.00386 53.1368 9.84592 54.592C10.6716 56.0188 11.4659 57.1148 12.0261 57.6138C12.9781 58.5606 14.431 59.6521 16.0412 60.2528C17.6614 60.8572 19.5143 60.9866 21.1447 59.8603C21.8705 59.359 22.4627 58.9546 22.9643 58.6494C23.4697 58.3418 23.8511 58.1551 24.156 58.0686C24.4477 57.9859 24.6391 58.0031 24.7965 58.0716C24.9686 58.1464 25.1692 58.3123 25.4159 58.6575L26.3189 58.3054L26.2061 57.3924L26.167 57.0761L25.907 56.992C25.8818 56.9602 25.8436 56.8987 25.7964 56.7931C25.7015 56.5803 25.6041 56.2671 25.4981 55.8523C25.3843 55.407 25.2733 54.8998 25.1487 54.3311C25.036 53.8166 24.9123 53.2518 24.7656 52.6369C24.167 50.1283 23.2381 47.0356 21.3652 44.8236C19.2502 42.3258 16.7894 41.2816 14.3332 40.3005C14.2268 40.258 14.1205 40.2156 14.0141 40.1733C11.6581 39.2346 9.31318 38.3005 7.08461 36.1883ZM25.9208 57.0077C25.9208 57.0077 25.9204 57.0073 25.9195 57.0064L25.9208 57.0077Z" fill="#187800" stroke="#005234"/>
<path d="M339.159 278.395C339.202 277.429 338.454 276.612 337.489 276.569C336.523 276.526 335.706 277.274 335.663 278.239L339.159 278.395ZM323.768 437.474C323.433 438.381 323.896 439.388 324.803 439.722C325.709 440.057 326.716 439.594 327.051 438.687L323.768 437.474ZM333.632 363.42L331.883 363.343C331.877 363.488 331.889 363.634 331.919 363.777L333.632 363.42ZM340.614 396.91L342.256 397.516C342.37 397.208 342.395 396.874 342.328 396.553L340.614 396.91ZM335.663 278.239L331.883 363.343L335.38 363.498L339.159 278.395L335.663 278.239ZM331.919 363.777L338.901 397.267L342.328 396.553L335.345 363.063L331.919 363.777ZM338.973 396.304L323.768 437.474L327.051 438.687L342.256 397.516L338.973 396.304Z" fill="black"/>
<path d="M333.87 362.788L346.546 350.338L331.458 399.175" stroke="black" stroke-width="3.5" stroke-linecap="round" stroke-linejoin="round"/>
<path d="M337.363 304.221C336.696 303.522 335.588 303.497 334.889 304.165C334.191 304.833 334.166 305.941 334.834 306.64L337.363 304.221ZM345.919 315.701L344.655 316.91C345.049 317.322 345.619 317.517 346.183 317.431C346.747 317.345 347.233 316.99 347.487 316.479L345.919 315.701ZM357.696 295.917C358.126 295.051 357.772 294.001 356.907 293.571C356.041 293.141 354.991 293.495 354.561 294.36L357.696 295.917ZM334.834 306.64L344.655 316.91L347.184 314.491L337.363 304.221L334.834 306.64ZM347.487 316.479L357.696 295.917L354.561 294.36L344.352 314.923L347.487 316.479Z" fill="black"/>
<path d="M334.575 305.73C334.893 304.749 335.841 304.183 336.694 304.464C337.547 304.746 337.981 305.769 337.663 306.749L334.575 305.73ZM326.052 337.308L327.061 338.676C326.479 339.231 325.669 339.312 325.076 338.876C324.482 338.44 324.251 337.592 324.508 336.799L326.052 337.308ZM338.334 323.277C339.053 322.592 340.088 322.649 340.646 323.405C341.204 324.16 341.073 325.328 340.354 326.013L338.334 323.277ZM337.663 306.749L327.596 337.818L324.508 336.799L334.575 305.73L337.663 306.749ZM325.042 335.94L338.334 323.277L340.354 326.013L327.061 338.676L325.042 335.94Z" fill="black"/>
<path d="M316.873 272.428C316.559 277.918 320.722 283.192 326.17 284.208L404.59 298.832C410.058 299.852 414.739 296.197 415.027 290.682L417.406 245.098C417.723 239.032 412.629 233.41 406.63 233.203L327.754 230.492C322.885 230.324 319.077 233.838 318.796 238.756L316.873 272.428Z" fill="#744601"/>
<path d="M316.603 278.954C316.446 281.699 318.528 284.336 321.252 284.844L409.88 301.372C412.604 301.88 414.94 300.066 415.097 297.321L415.402 291.968C415.559 289.223 413.478 286.586 410.753 286.078L322.126 269.55C319.402 269.042 317.066 270.856 316.909 273.601L316.603 278.954Z" fill="#633B00"/>
<path d="M316.765 276.11L415.258 294.477L415.458 284.229L317.192 268.63L316.765 276.11Z" fill="#633B00"/>
<path d="M351.298 290.448L350.812 298.945L379.348 304.266L379.833 295.77" stroke="#744601" stroke-width="3"/>
<path d="M377.214 296.027L383.658 297.229L383.632 293.43L377.192 292.86L377.214 296.027Z" fill="#FFB800"/>
<path d="M347.57 290.478L354.013 291.68L353.992 288.531L347.715 287.929L347.57 290.478Z" fill="#FFB800"/>
<path d="M317.192 268.63L415.469 285.831L415.452 283.428L317.24 267.78L317.192 268.63Z" fill="#4E2F00"/>
<path d="M363.668 279.226L369.897 280.387L370.147 274.927L363.902 275.122L363.668 279.226Z" stroke="#FFB800" stroke-width="3"/>
<path d="M351.875 275.5C351.875 283.963 346.306 290.125 340.219 290.125C334.131 290.125 328.562 283.963 328.562 275.5C328.562 267.037 334.131 260.875 340.219 260.875C346.306 260.875 351.875 267.037 351.875 275.5Z" fill="black" stroke="black" stroke-width="4"/>
</g>
<defs>
<linearGradient id="paint0_linear" x1="237.5" y1="414" x2="238.101" y2="456.757" gradientUnits="userSpaceOnUse">
<stop stop-color="#8D59AD"/>
<stop offset="1" stop-color="#620B98"/>
</linearGradient>
</defs>
</svg>
